<?xml version="1.0" encoding="utf-8"?>
<!-- Generator: Adobe Illustrator 23.0.3, SVG Export Plug-In . SVG Version: 6.00 Build 0)  -->
<svg version="1.1" id="Layer_1" xmlns="http://www.w3.org/2000/svg" xmlns:xlink="http://www.w3.org/1999/xlink" x="0px" y="0px"
	 viewBox="0 0 30 30" style="enable-background:new 0 0 30 30;" xml:space="preserve">
<style type="text/css">
	.st0{fill:#E68787;}
</style>
<g>
	<path class="st0" d="M13.2,6.8C12,7.1,11,7.6,10.1,8.3C9.1,9,8.4,9.8,7.7,10.7s-1.1,1.9-1.5,2.9c-0.3,1-0.4,2-0.3,3h4.7
		c0.4,0.6,0.8,1.3,1.1,2c0.3,0.8,0.4,1.4,0.4,2c0,0.9-0.1,1.8-0.4,2.7c-0.3,0.8-0.6,1.6-1.1,2.2H1.5c-0.9-2-1.4-3.9-1.5-5.8
		c0-3.1,0.6-5.7,1.8-7.8C2.9,9.9,4.4,8.2,6.1,7s3.6-2.1,5.6-2.6L13.2,6.8z M30,6.8c-1.1,0.3-2.2,0.8-3.1,1.6
		C26,9,25.2,9.8,24.5,10.7c-0.7,0.9-1.1,1.9-1.5,2.9c-0.3,1-0.4,2-0.3,3h4.7c0.4,0.6,0.8,1.3,1.1,2c0.3,0.8,0.4,1.4,0.4,2
		c0,0.9-0.1,1.8-0.4,2.7c-0.3,0.8-0.6,1.6-1.1,2.2h-9.1c-0.9-2-1.4-3.9-1.5-5.8c0-3.1,0.6-5.7,1.8-7.8c1.2-2.1,2.6-3.8,4.3-5.1
		c1.7-1.3,3.6-2.1,5.6-2.6L30,6.8z"/>
</g>
</svg>
