<?xml version="1.0" encoding="utf-8"?>
<!-- Generator: Adobe Illustrator 23.0.3, SVG Export Plug-In . SVG Version: 6.00 Build 0)  -->
<svg version="1.1" id="Layer_1" xmlns="http://www.w3.org/2000/svg" xmlns:xlink="http://www.w3.org/1999/xlink" x="0px" y="0px"
	 viewBox="0 0 150 150" style="enable-background:new 0 0 150 150;" xml:space="preserve">
<style type="text/css">
	.st0{fill:#FD8D24;}
	.st1{fill:#311902;}
</style>
<rect class="st0" width="150" height="150"/>
<rect x="10" y="10" class="st1" width="130" height="130"/>
<g>
	<path class="st0" d="M53.2,90.4l-5.8,19.1H34.6l21.6-67.4H72l21.9,67.4H80.7l-6.1-19.1H53.2z M72.5,81.1l-5.3-16.6
		c-1.3-4.1-2.4-8.7-3.4-12.6h-0.2c-1,3.9-2,8.6-3.2,12.6l-5.2,16.6H72.5z"/>
	<path class="st0" d="M115.4,47.2c0,3.7-2.7,6.6-7,6.6c-4.1,0-6.8-2.9-6.8-6.6c0-3.8,2.8-6.7,6.9-6.7
		C112.6,40.5,115.3,43.4,115.4,47.2z M102.2,109.5V60.8h12.4v48.7H102.2z"/>
</g>
</svg>
