<?xml version="1.0" encoding="utf-8"?>
<!-- Generator: Adobe Illustrator 23.0.3, SVG Export Plug-In . SVG Version: 6.00 Build 0)  -->
<svg version="1.1" id="Layer_1" xmlns="http://www.w3.org/2000/svg" xmlns:xlink="http://www.w3.org/1999/xlink" x="0px" y="0px"
	 viewBox="0 0 150 150" style="enable-background:new 0 0 150 150;" xml:space="preserve">
<style type="text/css">
	.st0{fill:#FB5EA5;}
	.st1{fill:#320213;}
</style>
<rect class="st0" width="150" height="150"/>
<rect x="10" y="10" class="st1" width="130" height="130"/>
<g>
	<path class="st0" d="M51.7,42.5V110H39.4V42.5H51.7z"/>
	<path class="st0" d="M110.2,38.9v57.3c0,5,0.2,10.4,0.4,13.7h-11l-0.5-7.7h-0.2c-2.9,5.4-8.8,8.8-15.9,8.8
		c-11.6,0-20.8-9.9-20.8-24.9c-0.1-16.3,10.1-26,21.8-26c6.7,0,11.5,2.8,13.7,6.4h0.2V38.9H110.2z M97.9,81.6c0-1-0.1-2.2-0.3-3.2
		c-1.1-4.8-5-8.7-10.6-8.7c-7.9,0-12.3,7-12.3,16.1c0,8.9,4.4,15.4,12.2,15.4c5,0,9.4-3.4,10.6-8.7c0.3-1.1,0.4-2.3,0.4-3.6V81.6z"
		/>
</g>
</svg>
