<?xml version="1.0" encoding="utf-8"?>
<!-- Generator: Adobe Illustrator 23.0.3, SVG Export Plug-In . SVG Version: 6.00 Build 0)  -->
<svg version="1.1" id="Layer_1" xmlns="http://www.w3.org/2000/svg" xmlns:xlink="http://www.w3.org/1999/xlink" x="0px" y="0px"
	 viewBox="0 0 150 150" style="enable-background:new 0 0 150 150;" xml:space="preserve">
<style type="text/css">
	.st0{fill:#25D2F6;}
	.st1{fill:#022732;}
</style>
<rect class="st0" width="150" height="150"/>
<rect x="10" y="10" class="st1" width="130" height="130"/>
<g>
	<path class="st0" d="M32.5,41.9c4.4-0.8,10.5-1.4,18.8-1.4c9,0,15.6,1.9,19.9,5.5c4,3.3,6.6,8.6,6.6,14.9c0,6.4-2,11.7-5.8,15.3
		c-4.9,4.9-12.6,7.2-21.3,7.2c-2.3,0-4.4-0.1-6-0.4v25.4H32.5V41.9z M44.7,73.4c1.5,0.4,3.5,0.5,6,0.5c9.2,0,14.8-4.5,14.8-12.4
		c0-7.5-5.2-11.5-13.7-11.5c-3.4,0-5.8,0.3-7.1,0.6V73.4z"/>
	<path class="st0" d="M85.2,97.2c2.8,1.7,8.1,3.5,12.5,3.5c5.4,0,7.8-2.2,7.8-5.4c0-3.3-2-5-8-7.1C88,84.9,84,79.7,84.1,74
		c0-8.6,7.1-15.3,18.4-15.3c5.4,0,10.1,1.4,12.9,2.9l-2.4,8.7c-2.1-1.2-6-2.8-10.3-2.8c-4.4,0-6.8,2.1-6.8,5.1
		c0,3.1,2.3,4.6,8.5,6.8c8.8,3.2,12.9,7.7,13,14.9c0,8.8-6.9,15.2-19.8,15.2c-5.9,0-11.2-1.4-14.8-3.4L85.2,97.2z"/>
</g>
</svg>
