<svg width="350" height="235" xmlns="http://www.w3.org/2000/svg">
  <path d="M101.635 28.755c.692 1.911 2.086 2.603 3.15 2.107-2.375-.268-.454-4.327-3.501-4.327-.176 0-.341.02-.496.051-.517-.547-1.105-.774-1.983-.774-1.291 0-3.512 1.25-3.512 3.821 0 5.537 6.435 6.032 6.435 10.928 0 1.436-1.085 2.324-2.293 2.324-1.085 0-1.952-1.219-2.861-3.12-.434-.898-1.374-2.148-2.365-3.428.289.206.63.32.95.33.35.01.671-.103.898-.33.227-.207.362-.517.383-.868v-.052c0-.433-.197-.888-.527-1.24-.351-.37-.806-.588-1.26-.598a1.23 1.23 0 0 0-.899.33 1.2 1.2 0 0 0-.372.858v.051c0 .197.031.382.104.568-1.384-1.807-2.676-3.584-2.676-4.555 0-.857.6-1.61 1.323-2.52.03.01.258.135.258.135l.186-.207c.258-.29.805-.878 1.91-2.076l.062-.062.269-.279-.692-.558a8.45 8.45 0 0 0 .465-1.363c.217.888.671 1.456 1.301 1.28-.413-.918.424-2.158-.134-4.41.527.868 1.291 1.333 1.838 1.168-1.425-1.26.424-3.027-1.435-5.754.61.207 1.012.083 1.28-.216-1.693-.238-.93-2.407-3.904-3.171.744-.135 1.178-.568 1.074-.96-.785.567-1.477-1.054-4.059-1.013-.155-.96-1.043-1.973-2.066-2.469.197.744.022 1.426-.175 1.983l-8.397-8.242c-.248-.227-.383-.29-.445-.206-.072.093-.061.237.094.413l7.21 9.037c-.548.186-1.075.414-1.633.62-.361.124-.63.486-.63.93-1.332.671-2.51 1.487-3.099 2.024-.444.403-.795.496-.402 1.405.155.351-.31 1.198.733.578.682-.413 2.231-1.27 2.458-.723.135.28-.64.64-1.167.837-.527.206-1.095.61-1.012.816.082.196.496-.01.527.196.03.248.196.455.402.455.217 0 .486-.434.651-.29.176.145-.082 1.126-.248 1.374.816-.103 1.343-.878 1.364-1.477.02-.61.186-.754.31-.847.124-.082.268.65.103 1.095.434-.093.878-.661.816-1.704.217-.176.444-.31.61-.31.278 0 .815.754 1.59.754 1.425 0 2.22-1.157 2.303-1.694.073-.444.042-.868-.196-1.188.506.403.672 1.054.672 1.54 0 2.013-3.574 2.963-5.04 4.368-.053.041-.104.093-.156.145l-1.683-.64-.114.36c0 .022-.021.094-.093.321-.176.579-.548 1.766-.765 2.458-.01 0-.093.28-.093.28l.155.092c-1.002 1.322-1.797 2.8-1.983 4.318a15.428 15.428 0 0 0-1.219-1.116c.042-.144.073-.3.093-.465a1.645 1.645 0 0 0-.392-1.177 1.11 1.11 0 0 0-.764-.393 1.1 1.1 0 0 0-.816.3c-.062.052-.104.103-.155.155-.052-.041-.114-.093-.176-.134-.547-.434-1.24-.93-1.652-1.395-.176-.186-.362-.3-.734-.3-.144 0-.496-.01-.743-.01-.248 0-.393.186-.672.444-.134.114-.527.413-.96.744.206.206.413.423.609.65.114.125.217.248.32.372.124-.082.217-.165.3-.227.165-.144.403-.175.62-.175.206 0 .516.155.722.475.155.237 1.508 2.014 2.634 3.253-.124.042-.247.094-.35.135-.486.196-1.57.165-2.046.124-.496-.041-.578-.165-.909.351-.124.196-.29.423-.444.62-.165.206-.29.423.052 1.002.495.836 1.724 3.047 2.138 4.038.402.992.888 1.157 1.673 1.477.775.32 2.117 1.085 2.272 1.26l.052-.764c-.227-.227-.981-.517-1.26-.61-.29-.103-.362-.227-.022-.227.341 0 1.281.341 1.942.61-.196-.754-.909-1.57-1.342-2.035-.558-.155-1.137-.155-1.364.02a.317.317 0 0 1-.32.362c-.217 0-.372-.196-.3-.403.073-.217.403-.3.341-.723-.072-.423-.61-.496-.95-.537-.475-.692-1.033-1.704-1.28-2.117-.249-.403-.094-.64.071-.775.414-.34 1.26.176 2.975.279a74.75 74.75 0 0 0 2.107.114c.227 1.983 1.023 3.863 3.78 4.555 1.354.33 2.738 1.322 3.213 2.613-5.505-.093-6.373 2.055-6.373 4.08 0 2.303 1.942 2.179 1.942 3.904 0 1.497-4.638 2.128-6.032 2.334-1.188.176-1.86.434-2.428 1.012-.568.568-1.146 1.116-2.19 2.149 0 0 .445.103.89.072l.774-1.012c.237-.33.392-.62.547-.589.155.031.052.279-.134.64l-.64 1.085c2.716.186 2.902-.816 2.902-1.24 0-.413-.682-.692-.29-.95.393-.258.724-.082 1.033.28.31.36.414.67 1.168.392 0 0 5.928-2.459 6.672-2.8.671-.299.485-.599.082-.929-.444-.362-.516-.96-.516-1.58 0-1.798 1.074-2.345 3.006-2.314-.041.31-.062.6-.062.868 0 2.799 4.235 5.536 5.381 5.536.506 0 1.198-.382 1.24 1.301.03 1.24.278 2.118.061 3.553-.227 1.436-.64 1.653-1.497 2.262-.857.6-1.673 2.49-2.045 2.892.392.248.805.29 1.115-.64.269-.764.568-1.301.899-1.487-.33.836-.579 2.076-.734 2.448 1.085.186 2.83-.796 2.83-1.56s-.609-.702-.609-1.209c0-.227.279-.475.61-.475.433 0 .764.341.795.506.475-.258.785-.733.764-1.848-.01-.434-.021-.889-.051-1.353.03.062.061.123.103.175.206.32.558.517.97.558.404.03.817-.083 1.189-.32.423-.29.712-.703.805-1.147.022-.082.031-.175.031-.268 0-.238-.062-.465-.196-.661a1.237 1.237 0 0 0-.795-.527c-.444-.093-.94.02-1.364.29a1.89 1.89 0 0 0-.785 1.042c-.082-1.518-.196-2.954-.155-3.532.062-.857.094-1.24-.196-1.364-.279-.134-.599.352-1.012.352-.413 0-1.653-1.147-1.653-2.355 0-1.22 1.302-2.779 1.24-4.431-.021-.517.3-.785.506-.31.248.558.62 1.332 1.188 1.952-.351 2.076 1.942 4.11 3.821 2.603-.93.134-1.57-.692-1.983-1.519.166.021.33.042.506.042.093 0 .186 0 .28-.01.66.815 2.767.753 3.304-1.281-.361.433-1.115.754-1.662.681.785-.62 1.198-1.621 1.198-2.706 0-5.267-6.404-5.887-6.404-10.7 0-1.777 1.56-2.923 2.644-2.923.413 0 .733.124.992.32-.414.413-.64 1.053-.6 1.828.166 3.801 6.363 3.615 6.446 5.433.702-2.748-3.925-1.9-4.09-5.598M85.138 14.192c.3-.578 0-1.446 1.044-1.446.516 0 .97.517 1.6.713-1.012.082-1.92.31-2.644.733m-5.67 11.63c-.021.31-.145.59-.33.754a.565.565 0 0 1-.414.166c-.35-.022-.64-.434-.64-.92v-.072c.021-.31.134-.589.33-.754a.591.591 0 0 1 .424-.165c.175.01.31.114.392.206.166.197.259.486.238.785m18.313 26.659c.062-.3.268-.589.568-.785.3-.196.65-.279.95-.217.134.031.33.103.454.29a.668.668 0 0 1 .083.526c-.062.29-.269.589-.568.785-.527.34-1.157.31-1.405-.072a.673.673 0 0 1-.082-.527m-3.853-17.683a.654.654 0 0 1 .713-.671c.3.01.63.165.867.423.248.269.393.6.382.91a.716.716 0 0 1-.206.474v.01a.772.772 0 0 1-.506.176c-.3-.01-.63-.165-.878-.434-.238-.258-.382-.599-.372-.888m-10.515-11.94c.3-.93.868-2.778.868-2.778l.97.371c-.288.114-.63.383-.929.672.217.093.62.114.878-.072l-.382.98c-.093-.154-.372-.505-.64-.567-.207.785.289 1.074.65 1.26.6.31.982.351 1.147.082.186-.34-.207-.805-.702-.599-.052-.506.227-.785.568-.785.268 0 .485.248.557.579-.03-.827.341-1.477 1.106-1.715.278.806.051 1.353-.558 1.932.32-.124.692-.104.836.124.186.279.114.671-.33.909-.114-.537-.723-.579-.899-.238-.186.341.083.672.63.971.64.362 1.147.145 1.488-.403-.207-.072-.568-.03-.91.186l.652-1.219c.03.176.134.486.402.713.104-.269.248-.754.042-1.177l1.404.805c-.475.041-.816.403-1.002.63.33.114.651.052.827-.01l-.734 1.177c.01-.403-.124-.733-.289-.888-.31.578-.248 1.115.382 1.487.537.33.95.393 1.157.072.217-.32-.134-.836-.64-.66-.021-.517.279-.765.61-.744.278.01.474.32.526.66.196-.815.558-1.29 1.394-1.456.176.785-.196 1.436-.94 1.829.33-.114.651-.042.785.185.166.3.073.682-.392.889-.072-.537-.672-.64-.868-.31-.165.279.083.589.64.95.341.227.837.506 1.426-.062-.196-.217-.64-.268-.816-.268l.65-.827c-.02.32.197.661.383.796.093-.403.155-.837.114-1.136l.816.65s-1.323 1.415-1.973 2.138zm8.687 21.876c-.362.496-.96.682-1.353.403s-.424-.898-.072-1.394c.35-.496.95-.682 1.342-.403.393.279.424.899.083 1.394m2.52-3.987c-.351.496-.95.672-1.343.393-.392-.279-.413-.909-.062-1.405.352-.496.95-.671 1.343-.392s.413.909.062 1.404m-15.565-9.791c-.32.124-.579.34-.723.63-.33.692.082 1.57.919 1.962.454.228.96.269 1.384.114.33-.114.589-.33.723-.62.145-.289.155-.63.041-.96-.155-.424-.506-.796-.96-1.013-.455-.216-.961-.258-1.384-.113m.433 2.107c-.568-.269-.857-.826-.66-1.24a.678.678 0 0 1 .412-.34c.29-.104.64-.073.961.082.32.155.568.413.671.703a.692.692 0 0 1-.01.537c-.093.196-.28.289-.413.34-.28.104-.64.063-.961-.082m10.08 15.255c-.32.31-.516.785-.526 1.281v.052c0 .485.176.95.486 1.26.237.248.547.392.857.392.32.01.64-.113.888-.361.32-.31.517-.785.527-1.28a1.92 1.92 0 0 0-.362-1.178c-.247-.33-.599-.527-.98-.537-.321 0-.641.124-.89.371m.838 2.438h-.011a.653.653 0 0 1-.475-.227c-.217-.217-.33-.558-.33-.92.01-.361.144-.681.36-.898a.654.654 0 0 1 .497-.207c.454.01.816.517.805 1.147-.01.351-.144.692-.361.898a.686.686 0 0 1-.486.207m-.02.547zm-10.133-29.56c-.661.516-.858 1.394-.434 1.941.434.558 1.322.579 1.993.062.362-.279.6-.681.65-1.095a1.16 1.16 0 0 0-.216-.847 1.16 1.16 0 0 0-.764-.423c-.413-.052-.858.082-1.23.362m-.113 1.26c0-.28.165-.6.454-.827.248-.186.558-.279.816-.247.124.01.29.061.403.216a.57.57 0 0 1 .104.444c-.031.259-.197.538-.445.724-.423.33-.97.34-1.218.04a.595.595 0 0 1-.114-.35m11.95 28.879c-.289.206-.475.485-.526.795-.073.382.04.764.33 1.085.258.289.64.495 1.074.578.434.072.858.01 1.209-.165.372-.207.62-.527.681-.899.145-.744-.495-1.487-1.404-1.652-.496-.093-.992 0-1.364.258m.971 1.91c-.61-.103-1.043-.567-.96-1.012a.727.727 0 0 1 .3-.444c.258-.175.609-.237.96-.175.547.103.97.506.97.919 0 .03-.01.062-.01.103-.082.444-.65.723-1.26.61m7.044-3.884c0 1.177.971 2.138 2.159 2.138a2.142 2.142 0 0 0 0-4.286c-1.188 0-2.159.96-2.159 2.148m.548 0c0-.888.723-1.601 1.61-1.601.879 0 1.592.713 1.592 1.601a1.6 1.6 0 0 1-1.591 1.6 1.611 1.611 0 0 1-1.611-1.6m-49.248-12.28c.196-.528-.785-1.137-.898-1.901-.104-.765-.022-1.488-.889-2.51-.857-1.002-3.842-4.194-4.74-5.206.226-.021.753-.145 1.311.372.32.31.95.909 1.55 1.498.795-2.004 1.766-3.512 3.16-5.082.176-.207.362-.393.547-.589-.516.155-1.311.279-1.766.589-.03-.878.031-1.59-.568-2.149.227-1.218.031-2.695-2.716-4.513 1.404.33 2.241 1.6 3.305.63-.96-.031-.981-2.128-4.462-3.873 1.332-.031 2.365 2.117 3.904.898-1.446-.165-1.931-2.747-4.545-3.543.91.104 1.85.548 2.624-.506-.899.207-1.436-.62-2.417-.702.372-1.126.279-1.818-.103-2.665-.682.052-1.384.258-1.89.671-.073-.62-.724-.66-1.302-.609.031.269.155.65-.134.713-.475.093-2.025.506-3.223.97-1.198.465-2.572 1.323-2.964 1.591-.248.165-.455-.227-.6-.413-.423.362-.836.826-.526 1.302-.671.061-1.405.227-2.035.723 0 .774.651 1.528 1.601 1.952-1.611 1.6-.155 3.078-1.57 4.482 1.994.073 1.653-2.706 2.655-3.098-.104 1.962-1.188 2.303-1.188 4.41 0 1.136.66 2.355.062 3.099 1.673-.465 1.24-4.152 2.272-5.268.186.63.072 1.25-.134 1.88-.589 1.725.062 4.08-.847 4.844 1.704-.165 1.91-2.902 3.315-3.904-1.208 2.458-2.448 7.705-4.245 10.329-2.912 3.924-4.617 8.707-7.281 8.707-1.178 0-2.066-.723-2.066-2.21 0-4.452 7.653-7.52 7.653-12.271 0-2.107-1.725-2.923-2.81-2.923-.722 0-1.6.361-2.333.97a2.407 2.407 0 0 0-.91-.196c-2.695 0-1.982 4.855-4.337 4.803.94.527 2.55-.495 3.49-1.849-.392 3.15-4.926 2.304-4.575 6.094.63-2.964 7.86-2.53 7.86-7.023 0-.506-.258-.93-.62-1.27.538-.341 1.054-.476 1.519-.476.868 0 1.652.651 1.652 1.921 0 3.977-7.591 7.334-7.591 12.22 0 .826.237 1.507.63 2.055-.537.227-1.085.113-1.54-.413-.05 1.25 1.746 2.045 2.883 1.415.247.082.516.144.785.165-.341.93-1.498 1.208-2.107 1.167 1.859 1.467 5.112-.454 4.926-2.117 1.477-1.198 2.417-3.233 3.492-4.576-.073.31-.125.62-.166.92-1.095 1.982-2.117 3.759-2.396 6.372-.237 2.19-1.343 4.152-2.882 4.152-.33 0-.888-.433-1.146-.217-.486.403-.031.837-.031 1.24 0 .63-1.198 1.25-1.198 3.16 0 .868.506 1.901.32 2.48.485-.259 1.136-1.075 1.405-2.139.526 2.541-1.085 2.428.072 4.68.144-.755.888-1.054 1.343-.755.454.32.247.537-.094.868-.34.34-.65 2.024.889 1.921-.29-.186-.31-.64.454-.795 1.054-.207 1.364.268 2.49.268.702 0 .888-.909 1.445-.909.548 0 .548.434.352.744.888-.238 1.053-.713 1.053-1.219 0-.496-.403-.816-.093-1.002.31-.196 1.343.02.94.858.527-.093.816-.476.816-1.126 0-.651-.744-1.033-1.446-.91-.114-.412-.713-.63-1.27-.63-1.24 0-1.054.992-1.911.992-1.364 0-2.686-1.776-2.686-4.782 0-1.6 1.725-2.014 2.944-2.54 1.229-.528 3.367-1.84 4.648-3.998 1.012-1.684 1.043-3.532.909-5.722 1.725.991 1.92 2.406 1.92 3.45 0 1.332-.691 1.88-1.239 2.127-.454.217-.62.124-.66.403-.062.341.165.537.36.64.631.32.497.91.672 1.56.176.651.754 1.663 1.715 2.407.103-.403.072-1.043.021-1.87 1.322.651.258 3.306 2.83 3.306-.475-.269-.34-.971-.072-1.064.269-.104.62.175 1.115.867.496.692.362.64 1.58.64 1.21 0 .672-.423 1.313-.423.64 0 .599.744.247 1.291 1.085-.33 1.415-1.157 1.043-2.003.961-.517 1.467.216 1.612.733.94-.94 0-2.076-.744-2.159.021-.34-.3-.713-.692-.743-.403-.021-.785-.042-1.219-.021-.444.02-.692.671-1.219.671-1.61 0-4.802-2.923-4.802-4.183 0-1.26 3.057-2.035 3.057-3.997 0-2.562-2.52-3.43-4.638-5.072.754-.857 2.965-1.053 4.204-.444.145-.712.6-.537.775-1.766.444 1.085-.021 2.014.444 2.479.351-.527 1.27-.454 1.208-1.787.28.837-.35 2.118.28 2.675.113-.681.516-.816.784-.816.259 0 .486.186.486.6 0 1.022-1.26.547-1.26 1.693 0 .486.609.661.609.971 0 .31-.506.806-1.116.393.207.444.61.836 1.137.836.557 0 1.156-.444 1.384-1.022.3.733.072 1.55-.455 1.652.558.28 1.88.021 1.725-1.673.754.124 1.136.63.702 1.529.61-.145 1.168-.444 1.168-1.105 0-.496-.548-.651-.3-1.302m-14.44-23.095c-.702.062-.681-.599-1.91-.899.857-.175 1.973-.609 2.933-.98.186.805-.145 1.807-1.022 1.88m4.926 5.236c-.888.382-1.59-.403-1.756-.94-.175-.537-.32-.981-.113-1.188.392-.382.506-.671.279-1.157-.269-.547-.858-.289-1.488-.134.3-.527.32-.899-.072-.847-.485.051-.485.826-.754.733-.268-.093-.114-.537-.114-.774 0-.33.217-.445.537-.59l2.593-.98c.34-.124.568-.186.806.04.165.176.578.393.454.641-.134.248-.671-.3-1.053-.01-.32.247-.042.495.537.671-.558.33-1.157.547-.971 1.126.165.506.454.63 1.002.64.3 0 .506.424.743.93.259.506.33 1.425-.63 1.838m.155-7.23c-.692.548-1.611.041-2.035-.671.961-.393 2.066-.837 2.81-1.302-.682 1.064-.217 1.54-.775 1.973m-1.57-6.59c.196.3.269.445.28.682-.146-.062-.321-.217-.517-.465l.103 1.157c.134-.206.248-.351.413-.423-.041.754-.34 1.074-.599 1.115a.483.483 0 0 1-.599-.382c-.062-.33.227-.547.527-.237.051-.703-.506-.692-.754-.393.29-.671.175-1.115-.424-1.477-.371.63-.216 1.033.259 1.518-.455-.237-.868.155-.465.672.093-.444.485-.351.568.01.082.3-.217.692-.713.847-.712.217-.94-.247-1.115-.63.155-.103.527-.062.93.196l-.341-1.136c-.166.403-.403.568-.682.692-.021-.33.217-1.002.217-1.002l-1.374.558s.64.31.857.568c-.289.104-.568.155-.97-.02l.536 1.053c.114-.475.352-.754.538-.796.144.403.299.889-.362 1.24-.465.237-.94.155-1.105-.114-.186-.32.03-.66.392-.403-.051-.66-.63-.65-.795-.155.01-.671-.165-1.084-.878-1.27-.175.671.062 1.074.733 1.353-.382-.041-.795.34-.268.806 0-.424.361-.475.547-.197.145.207.114.517-.155.693-.216.144-.65.134-1.208-.383.165-.062.34-.041.589.01l-.734-.898c.041.32.021.548-.051.703-.155-.186-.207-.341-.28-.692l-.557.506c.527.32 1.147.826 1.88 1.849.785-.486 2.18-1.157 3.047-1.508.867-.362 2.334-.847 3.233-1.044-.186-1.25-.104-2.034.051-2.633zM34.713 4.4l.403.868.506-.61c.01.011.03.022.051.022.052.3.062.805.062 1.084 0 .351.29.64.64.64a.635.635 0 0 0 .29-1.198 5.243 5.243 0 0 1-.692-.65.602.602 0 0 0 .03-.083l.837.073-.33-.889-.63.537c-.01-.01-.021-.02-.031-.02l-.052-.93-.867.33.578.692c-.01.021-.021.042-.03.072zm3.17.682a.493.493 0 0 0 0-.702.493.493 0 0 0-.702 0 .493.493 0 0 0 0 .702.493.493 0 0 0 .703 0m1.136-.837a.512.512 0 0 0 0-.702.505.505 0 0 0-.713 0 .493.493 0 0 0 0 .702.505.505 0 0 0 .713 0m1.312.217a.493.493 0 0 0 0-.702.493.493 0 0 0-.703 0 .493.493 0 0 0 0 .702.493.493 0 0 0 .703 0m.113 1.064a.502.502 0 0 0 .703-.01.48.48 0 0 0 0-.693.502.502 0 0 0-.703-.01.505.505 0 0 0 0 .712m-5.66.92a.505.505 0 0 0 .506-.496.507.507 0 0 0-.506-.506.496.496 0 0 0-.485.506c0 .268.217.496.485.496m-1.322.082a.49.49 0 0 0 .496-.496.496.496 0 0 0-.496-.495.503.503 0 0 0-.496.495c0 .28.227.496.496.496m-.279.589a.505.505 0 0 0-.506-.496.503.503 0 0 0-.496.496c0 .279.227.496.496.496a.498.498 0 0 0 .506-.496m.176 1.332a.507.507 0 0 0-.506-.506.505.505 0 0 0-.496.506c0 .269.227.496.496.496a.505.505 0 0 0 .506-.496m33.258 35.79c.022.04.073.082.145.113.806.217 1.704-.372 2.19-.248-.62-.217-1.023.165-1.622.041.351 0 .723-.072.744-.165-.28.176-1.043-.124-1.374.083-.021.01-.041.03-.062.051-.248.052-.454.186-.454.372 0 .517 2.034.104 2.034.28 0 .144-.402.278-.93.278-.412 0-1.104-.269-1.993-.052v-.01c.073-.145.248-.372.166-.465.082-.03.124-.093.124-.155-.042-.041-.093-.051-.135-.062.021-.04-.01-.072-.04-.103-.012-.01-.022-.093-.042-.103a.715.715 0 0 0-.165-.114c-.093-.041-.145-.041-.186-.051-.021-.01-.093.02-.093.02-.042-.01-.093-.01-.104.041a.27.27 0 0 0-.134-.061.302.302 0 0 0-.021.216c-.072 0-.135.176-.207.155.031.052.052.073.072.073-.061.113-.093.237-.155.237a.23.23 0 0 0 .073.072 1.37 1.37 0 0 0-.031.496c-.124-.124-.31-.423-.434-.496-.124-.072-.124-.123-.124-.237 0-.103.041-.196.041-.29a.535.535 0 0 0-.03-.092c-.022-.073-.104-.114-.156-.104.031.021.062.042.062.104a.353.353 0 0 0-.041.051c-.021.031-.031.073 0 .104.01.01.01.01.01.02 0 .02 0 .031-.01.052 0 .02-.01.01-.01 0-.022-.083-.063-.186-.125-.186h-.051c.01 0 .01-.01.01-.02 0-.073-.082-.125-.175-.042.02.01.062.01.072.031a.455.455 0 0 0-.021.083c-.01.072.051.103.134.103.01 0 .021 0 .021.01.01.02.01.02.01.031.011.02 0 .02-.01.01-.134-.051-.186.01-.196.063 0 .01 0 .04.01.062-.051.03-.061.093.022.154 0-.03 0-.072.03-.082.011 0 .011 0 .022-.01.01.01.041.03.041.03 0 .01.031 0 .072-.02.01-.01.022-.01.031 0 .01 0 .021.01.042.02v.021c-.094.093-.073.176.04.196.011 0 .022.01.022.021-.01.165-.227.134-.217-.031-.124.196.093.34.248.238.01 0 .021 0 .021.01.01.03.021.052.062.062-.01-.01 0-.041.03-.041.011 0 .011.01.011.02 0 .041.011.103.083.114-.01-.042 0-.073.021-.073s-.01.259.227.393c.042.134.155.217.29.196.03.104.093.196.072.196-.031 0-.31-.03-.382.01a1.238 1.238 0 0 1-.259.094l-.021.01s0-.01.01-.01c-.072.01-.154 0-.196-.052-.02-.041-.01-.072-.051-.134a.176.176 0 0 0-.083-.072h-.072c-.041-.042-.134-.052-.175-.021.03.01.072.02.103.072-.01.02-.031.052-.031.052-.021.041-.01.093.165.155.01 0 .021.02.01.02-.03.01-.061.021-.092-.01-.072-.052-.083-.124-.165-.083 0 .01-.022.021-.052.031 0 0-.01-.01-.021-.01-.072 0-.186.093-.135.176a.141.141 0 0 1 .094-.073c.01.021.01.042.02.052.011.083.052.155.228.031.021-.01.021.01.01.02-.04.073-.155.145-.061.207l.04.02c-.01.011-.01.022-.01.022-.021.103.093.175.145.175-.021-.03-.062-.082-.052-.155.021.01.041.02.052.02.082-.04.041-.144.093-.175.01-.01.021 0 .021.01.01.042.031.135.134.135.093-.01.145-.093.135-.155 0 0 0-.01.01 0 .031.02.062.052.042.103.02 0 .061-.03.072-.072.02.052.03.114-.031.175.03-.01.134-.061.155-.165.021.01.041.031.041.052.01 0 .01 0 .01-.01.031.02.104.02.207 0 .01-.01.01 0 .01.01-.01.041-.01.083.011.103 0-.01.031-.051.041-.051.031 0 0 .092.062.154.022-.247.155-.154.32-.258.022-.01.022 0 .022.01-.021.032-.041.062-.072.083.061.01.237-.082.237-.175 0-.031.124-.135.155-.445.021 0 .041.01.062 0 .217-.01.32-.175.537-.185-.052.061-.072.216-.062.31 0 .123.145.247.186.289.01.01.01.02 0 .02-.072.01-.145.02-.165.041-.176.114-.176-.258-.362-.196-.01.01-.041.031-.051.042-.073 0-.176.082-.155.165a.184.184 0 0 1 .113-.072v.04c0 .032.01.063.073.063.04 0 .04-.02.072-.02.01 0 .02.01.02.02 0 .072-.226-.041-.185.155 0 .01.021.041.03.062-.01.051.042.113.146.082-.022-.02-.062-.04-.052-.072.021 0 .041.01.052.01.01 0 .02-.01.02-.03 0-.01 0-.021.011-.021l.021.02c0 .01-.02.031-.02.042 0 .01.02.051.02.062-.01.072.094.144.197.072-.022 0-.093-.01-.104-.052.031 0 .052-.01.052-.02.021-.01.03-.042.03-.062 0-.02 0-.02.011-.02h.052c.021-.011.03 0 .03.01.022.04.083.082.146.051.124-.03.02-.145.124-.165.01 0 .04-.01.072 0 .103.02.175.041.206-.01.021-.042.01-.228-.093-.28-.072-.04.083-.423-.217-.598.145.03.59.093.672-.021.134.031.289.124.31.155.01.03.02.062-.011.083-.124.072-.103.113-.176.134h-.01c-.031-.031-.072-.093-.114-.114-.041-.03-.093-.01-.093 0-.062-.02-.165 0-.186.072.021 0 .072-.02.134 0-.01.01-.01.021-.01.031-.01.01 0 .042.021.052.01 0 .01.01.01.01.011.01.011.021-.01.021-.062-.01-.196-.02-.165.062 0 0 .01.031.021.052-.052.03-.062.113-.03.144.01-.03.02-.041.082-.072.01.02.02.031.03.041.042.042.104-.062.176-.041.01 0 .01.01.01.01-.072.031-.134.083-.113.135a.2.2 0 0 1 .03.051c-.03.042-.01.124.073.145 0-.01-.021-.062-.01-.093h.082c.134-.072.041-.165.093-.207.052-.041.114.083.217-.01.021-.02.041-.062.021-.103v-.01c.031.03.052.061.114.04-.083-.072 0-.103.041-.165 0-.01.01-.01.021-.01.041.01.093 0 .145-.072-.062.02-.217-.072-.124-.114.134-.051.165-.124.103-.196-.114-.134-.33-.145-.34-.31h.206c.692 0 1.126-.186 1.115-.403-.03-.465-2.076.042-2.076-.3 0-.103.124-.185.28-.237m-1.488.072c.03.021.165.073.227.093-.103.021-.083.062-.145.052-.062 0-.093-.083-.082-.145m-.135-.072c-.03.052-.103.093-.144.041-.052-.04 0-.061-.062-.154.062.04.165.103.206.113m-.227.465c.022-.041.042-.072.062-.072.041.01.062 0 .072-.042.022-.04-.02-.062-.061-.093.04-.01.061-.03.04-.051-.02-.02-.071.01-.071 0-.011-.02.02-.042.03-.052.022-.02.042-.01.062 0l.186.093c.022.01.031.02.031.041s.01.062-.01.073c-.022 0-.022-.062-.052-.073-.03 0-.03.021-.01.073-.042-.01-.083-.042-.104 0-.021.041-.021.062.01.093.022.02.011.051-.01.093-.021.041-.072.103-.134.072-.072-.041-.062-.114-.042-.155m2.51-3.326c.011.042.063.083.145.104.796.227 1.705-.372 2.18-.228-.63-.227-1.013.155-1.622.031.351 0 .723-.072.744-.175-.28.186-1.043-.114-1.374.093-.021.01-.03.02-.052.03-.433-.01-.785-.01-.785.28 0 .62 1.643.258 2.17.258.516 0 .454.051.454.155 0 .144-.589.175-.888.175-.445 0-1.798-.227-2.614-.062.062-.134.207-.31.135-.402.072-.042.124-.093.124-.166a.228.228 0 0 0-.155-.062c.03-.041 0-.082-.031-.113-.01 0-.03-.093-.041-.104a.628.628 0 0 0-.186-.124c-.093-.04-.145-.04-.186-.051-.021-.01-.103.02-.114.01-.041 0-.093 0-.103.052-.031-.042-.083-.052-.134-.062-.031.072-.052.124-.031.217-.062.01-.145.196-.207.175.021.052.041.073.062.083-.062.103-.082.237-.155.248.031.03.041.051.062.062-.021.082-.03.165-.041.237l-.072-.03h-.031c-.093-.011-.155 0-.32-.094-.125-.072-.125-.134-.125-.258 0-.103.052-.196.042-.3a.86.86 0 0 0-.021-.103c-.031-.062-.125-.113-.176-.103.03.02.062.052.072.103a.423.423 0 0 1-.051.062c-.022.031-.031.073.01.114v.072c-.01.02-.021.01-.021 0-.031-.082-.062-.196-.134-.196h-.042v-.01c0-.083-.082-.155-.185-.052.02 0 .061.01.082.031-.01.031-.03.072-.03.083 0 .082.061.103.144.113.021 0 .021 0 .03.01v.042c.011.01 0 .01-.01 0-.134-.062-.196.01-.196.062 0 .01-.01.051 0 .062-.052.03-.062.113.03.165 0-.02 0-.072.032-.083.01 0 .01-.01.02-.01.011.02.032.031.032.041.01 0 .04 0 .082-.03.01-.01.021-.01.031-.01.021.02.031.02.052.03.01.01 0 .02 0 .02-.093.094-.083.187.04.207.022.01.022.021.022.031-.01.176-.237.135-.227-.03-.134.196.093.35.268.247.011-.01.011 0 .022 0 .01.031.02.073.051.073 0-.01.01-.042.042-.042.01 0 .01.01.01.02 0 .042.021.104.083.114-.01-.03 0-.072.02-.072.032 0 .032-.072.238.041a.163.163 0 0 0 .083.083l.155-.03c-.021.123.021.299-.01.299-.032 0-.27-.021-.352.02-.114.062-.403.166-.485.052-.031-.041-.022-.083-.052-.145-.031-.041-.072-.072-.093-.072h-.072c-.042-.052-.155-.062-.197-.031.042.01.083.02.114.072-.021.02-.021.052-.03.062-.022.042-.011.093.175.166 0 0 .021.01 0 .02s-.062.02-.093-.01c-.072-.062-.083-.134-.166-.083l-.061.02h-.022c-.072-.01-.196.094-.144.187.01-.031.041-.083.103-.083.01.02.01.041.01.052.022.093.063.165.248.041.022-.01.022 0 .022.01-.052.083-.166.155-.073.217 0 .01.022.02.042.031-.011.01-.011.01-.011.02-.021.104.093.187.155.177a.239.239 0 0 1-.062-.155c.03.01.052.02.062.02.093-.041.041-.144.093-.186.021-.01.021 0 .021.01.01.042.031.145.145.135.103-.01.155-.093.134-.155 0 0 .01-.01.021 0 .031.02.062.062.052.114.01-.01.052-.042.072-.083a.168.168 0 0 1-.041.196c.041-.02.155-.072.176-.186.01.01.03.042.04.062 0-.01 0-.01.011-.01.031.01.104.02.207-.01.01 0 .021 0 .021.01-.021.041-.021.093.01.114 0-.01.022-.062.042-.062.021 0 0 .113.062.175.021-.268.237-.206.413-.32.021-.01.021-.01.021.01-.01.031-.041.062-.082.093.185.114.382-.144.433-.279.022-.02.042-.03.052-.051.01.02.021.051-.03.082.175.01.154-.134.226-.124.537.042.124-.454.992-.3a.385.385 0 0 0 .217-.102c-.062.113-.073.35.051.371.062.01.165.052.207.083.01.02 0 .02-.01.02a.444.444 0 0 0-.166.052c-.186.114-.186-.278-.382-.206-.01.01-.042.03-.052.041-.082 0-.186.093-.175.176.03-.031.072-.073.134-.073v.042c-.01.03 0 .062.062.062.051 0 .051-.02.082-.02.01 0 .021.01.021.02 0 .072-.237-.042-.196.165 0 0 .021.052.041.062-.01.062.042.124.145.093-.021-.02-.062-.052-.051-.083.02.01.04.01.051.01.01 0 .021-.01.021-.03 0-.01 0-.01.01-.01.012 0 .032.01.032.02s-.021.02-.021.041c0 0 .01.052.02.062-.01.073.094.155.207.083-.03-.01-.103-.02-.113-.062.03-.01.051-.02.062-.02.01-.011.02-.042.02-.073 0-.02.011-.02.022-.02h.052c.02 0 .03 0 .03.01a.128.128 0 0 0 .155.072c.135-.052.022-.165.124-.186a.113.113 0 0 1 .083 0c.093.02.248.02.279-.03.03-.053.021-.238-.104-.3-.062-.031.011-.114-.051-.207a.869.869 0 0 0 .382.093c.29 0 .413-.041.558-.114.165-.082.31-.041.35-.041.042.01.063.031.042.072-.072.145-.03.166-.072.228-.052.051-.155.01-.238.01-.051-.01-.093.03-.093.03-.082.021-.186.083-.196.166.031-.02.083-.062.145-.072v.041c-.021.093.082.124.165.062.01-.02.03 0 .01.01-.061.052-.196.145-.123.176.01.01.03.02.051.031-.021.052.01.124.052.134 0-.041 0-.062.041-.124h.052c.062 0 .062-.124.144-.165.01 0 .021 0 .01.01-.04.073-.082.155-.02.176 0 0 .03.01.051.01 0 .062.062.104.166.052-.022 0-.073-.031-.073-.052l.073-.072c.082-.155-.052-.155-.031-.217.01-.072.144-.02.196-.175 0-.021 0-.073-.041-.093-.011 0-.011-.01-.011-.01.052 0 .083.01.124-.052-.114.01-.052-.083-.052-.145 0-.01 0-.02.011-.02a.237.237 0 0 0 .093-.166c-.051.052-.186.114-.175.01 0-.01.01-.082-.104-.062-.196.01-.454-.02-.816-.051-.02 0-.03-.02 0-.031.362-.02 1.074-.072 1.074-.3 0-.186-.03-.31-.65-.31-.61 0-2.004.228-2.004-.124 0-.165.268-.154.599-.134m-2.014-.041c-.041.052-.103.103-.155.052-.051-.052 0-.073-.062-.176.062.041.176.114.217.124m.124.372c-.021.01-.021-.052-.051-.062-.031-.01-.031.02-.011.072-.052-.02-.093-.041-.114 0-.02.041-.01.062.01.103.022.021 0 .052-.01.093-.02.042-.072.104-.144.073-.073-.042-.052-.114-.042-.155.031-.042.042-.073.062-.073.052 0 .072-.01.083-.051.02-.052-.021-.073-.072-.093.051-.02.072-.042.051-.062-.03-.02-.072.02-.082 0-.011-.02.02-.041.04-.052.011-.02.032-.02.063 0l.196.093c.021.01.03.02.03.052 0 .02.011.051-.01.062m.104-.134c-.073 0-.093-.104-.083-.166.031.031.165.083.238.104-.104.02-.083.062-.155.062m4.689-1.829c0-.01 0-.02.01-.02a.179.179 0 0 0 .073-.176c-.042.052-.176.124-.186.01 0-.01 0-.082-.114-.062-.206.021-.392-.02-.764-.051-.021-.01-.041-.02 0-.031.372-.031 1.053-.083 1.053-.32 0-.197-.217-.33-.867-.33-.64 0-2.634.237-2.634-.125 0-.227.66-.134 1.157-.124.03.042.072.073.155.093.826.238 1.786-.382 2.282-.248-.65-.227-1.064.166-1.694.042.362 0 .754-.083.775-.176-.29.186-1.095-.134-1.436.083-.02.01-.04.03-.062.051-.609-.01-1.363-.082-1.363.28 0 .64 2.272.268 2.81.268.547 0 .67.062.67.155 0 .165-.547.196-.846.196-.517 0-2.634-.279-3.481-.02.052-.145.258-.362.165-.476a.218.218 0 0 0 .135-.165.34.34 0 0 0-.166-.072c.031-.042-.01-.083-.03-.114-.011-.01-.031-.093-.052-.114-.031-.02-.093-.072-.186-.124-.093-.051-.155-.04-.196-.051-.021-.01-.114.02-.114.01-.052 0-.103 0-.114.052-.04-.031-.093-.062-.144-.062-.031.072-.052.124-.021.227-.083.01-.166.196-.238.176.031.062.052.082.072.082-.051.114-.082.258-.165.258.052.062.083.093.114.104-.01.062-.01.134-.021.186l-.104-.031c-.051-.01-.093-.01-.103-.01-.031-.01-.072-.01-.104-.021-.103-.01-.185-.176-.361-.28-.124-.071-.134-.133-.134-.268 0-.113.061-.206.051-.31 0-.01-.02-.072-.03-.103-.022-.072-.125-.124-.176-.113.03.02.062.051.072.113-.031.02-.052.052-.062.062-.01.031-.021.072.01.114.011 0 .011.01.011.02s0 .031-.01.052c-.011.02-.011.01-.011 0-.03-.083-.072-.196-.134-.207h-.062l.01-.01c0-.082-.093-.155-.196-.052.031.01.072.01.083.031a.855.855 0 0 0-.021.083c-.011.083.051.124.144.124.021 0 .031.01.031.02 0 0 0 .021.01.032 0 .01-.01.01-.01.01-.155-.062-.217 0-.217.072v.052c-.051.041-.062.114.031.175 0-.02 0-.082.031-.092h.021c.021.01.041.03.041.03.022 0 .031 0 .094-.03 0 0 .01-.01.03 0 .011.01.022.02.042.03.01 0 .01.021 0 .021-.104.093-.083.196.051.217.011.01.022.01.022.031-.011.186-.259.145-.248-.041-.124.217.103.372.279.268.02-.01.02 0 .02 0 .022.031.032.073.063.073 0-.01.01-.042.041-.042.01 0 .021.01.021.02 0 .052.021.114.083.114-.01-.03 0-.062.02-.062.042 0 .156.259.424.414-.01-.031.093-.073.155-.104.01.052.042.104.093.114l.042-.02c-.021.123.124.258.103.258-.041 0-.29-.031-.372.01-.124.072-.423.175-.506.052-.03-.052-.021-.083-.062-.155-.03-.042-.062-.073-.103-.073 0 0-.031-.01-.062-.01-.052-.041-.165-.052-.207-.02.042.01.083.02.114.082-.01.02-.03.052-.03.052-.022.051-.011.103.175.175.01 0 .03.02.01.031-.02.01-.061.02-.093-.02-.082-.052-.093-.135-.175-.083-.01 0-.031.01-.062.02h-.021c-.083-.01-.207.094-.155.197.01-.031.04-.083.103-.093.01.02.01.052.021.062.021.103.052.175.259.041.02-.01.02 0 .01.01-.04.083-.175.166-.072.228l.041.041-.01.01c-.01.114.103.197.165.197-.021-.031-.072-.093-.062-.176.03.01.052.02.062.02.093-.04.052-.154.103-.185.01-.01.022 0 .031.01 0 .041.021.155.135.134.113 0 .165-.093.144-.155 0-.01.01-.01.021-.01.031.031.062.072.052.124a.204.204 0 0 0 .082-.083c.022.052.022.124-.051.197.051-.01.165-.073.186-.186.02.01.041.041.041.051 0 0 .01 0 .01-.01.042.02.114.031.228 0 .01 0 .01 0 .01.01-.01.052-.01.093.011.114.01-.01.03-.052.052-.052.03 0 0 .104.061.176.031-.29.186-.176.362-.29.021-.01.021 0 .021.011a.177.177 0 0 1-.082.093c.062.052.33-.114.33-.217 0-.02.093-.03.186-.052.186.01.165-.134.238-.134 1.063.145.444-.454 1.693-.33.062 0 .094-.062.145-.114-.072.114-.072.362.052.393a.4.4 0 0 1 .216.082c.011.01 0 .02-.01.02a.595.595 0 0 0-.176.052c-.186.124-.196-.289-.402-.216-.011.01-.042.03-.052.051-.083-.01-.196.093-.176.176a.217.217 0 0 1 .135-.083v.042c-.01.04 0 .072.072.072.041 0 .051-.02.082-.02.011 0 .022.01.022.02 0 .082-.259-.042-.207.175 0 0 .021.052.041.062-.01.062.042.135.155.093-.021-.01-.062-.041-.051-.072h.051c.01 0 .021 0 .021-.03 0-.011.011-.011.021-.011.011 0 .022.01.022.02s-.022.021-.022.042c0 0 .011.062.022.072-.01.072.103.155.217.083-.031-.01-.104-.021-.114-.062a.219.219 0 0 1 .062-.021c.01-.01.02-.041.02-.083 0-.01.011-.01.011-.01.022 0 .042-.01.062-.01.022 0 .031.01.031.02.031.042.093.093.165.062.145-.051.022-.165.135-.196h.082c.104.031.269.031.3-.02.021-.052.01-.248-.104-.32-.072-.032 0-.114-.061-.218.124.052.237.104.402.104.3 0 .393-.042.537-.124.145-.093.31-.042.362-.042.03.01.062.021.052.073-.052.155 0 .175-.042.248-.03.051-.155 0-.247 0-.042 0-.093.03-.093.04-.073.011-.166.084-.176.166.03-.02.082-.062.145-.072v.041c0 .104.113.135.185.062.011-.01.042 0 .022.02-.062.042-.186.145-.094.176 0 0 .031.021.052.031-.01.062.031.135.083.145-.022-.041-.022-.062.02-.124h.052c.062 0 .041-.134.124-.175 0 0 .01 0 .01.01-.03.072-.05.165.011.186 0 0 .031.01.052.01.021.062.083.103.176.052-.022-.01-.062-.031-.073-.062a.229.229 0 0 0 .052-.073c.062-.155-.072-.155-.062-.216 0-.083.155-.031.165-.197 0-.02 0-.072-.051-.093l-.01-.01c.05 0 .092.01.123-.052-.124.01-.072-.093-.093-.155m-4.668-1.208c.031.03.176.083.248.103-.114.02-.083.062-.155.062s-.103-.093-.093-.165m-.155-.083c-.031.062-.104.114-.165.052-.052-.052.01-.062-.062-.165.072.03.186.113.227.113m-.248.527c.031-.041.041-.083.072-.083.041 0 .062 0 .083-.051.01-.052-.031-.073-.072-.104.04-.01.072-.03.04-.051-.02-.031-.071.01-.082 0-.01-.031.022-.041.042-.062.02-.01.03-.01.061 0l.207.093c.021.02.041.03.041.062 0 .02.01.062-.01.062-.031.01-.022-.062-.062-.062-.031-.01-.031.02-.01.072-.053-.02-.094-.041-.115.01-.03.042-.02.062.011.104.021.01 0 .051-.01.103-.022.041-.083.103-.145.072a.128.128 0 0 1-.052-.165m-.165-.29h-.01zm.051-.226h-.01.01M60.972 34.745c0-.196-.216-.32-.867-.32-.64 0-2.644.238-2.644-.124 0-.227.682-.134 1.178-.124.02.031.061.062.144.093.827.238 1.704-.33 2.304-.124-.476-.434-1.085.042-1.715-.082.372-.01.754-.083.775-.176-.29.186-1.095-.134-1.436.083-.031.01-.041.03-.062.04-.61 0-1.363-.082-1.363.29 0 .65 2.272.269 2.82.269.536 0 .65.051.65.155 0 .155-.537.196-.847.196-.496 0-2.623-.279-3.47-.02.051-.145.258-.362.155-.476.082-.041.144-.093.144-.165a.34.34 0 0 0-.165-.072c.03-.042 0-.083-.03-.114-.012-.01-.032-.093-.042-.114-.041-.02-.104-.082-.196-.124-.093-.051-.155-.051-.197-.062-.02 0-.103.021-.113.021-.052-.01-.104-.01-.114.052-.03-.042-.093-.062-.145-.073-.04.073-.051.135-.02.238-.083 0-.166.196-.238.176.03.051.051.082.072.082-.062.114-.083.258-.165.258.03.042.062.062.082.083a.632.632 0 0 0-.03.196l-.073-.03c-.041 0-.082 0-.093-.011-.03 0-.062-.01-.114-.01-.103-.01-.175-.176-.35-.28-.125-.072-.135-.134-.135-.268 0-.113.062-.217.051-.32 0-.01-.02-.062-.03-.093-.022-.072-.124-.134-.176-.114.03.021.062.042.072.114-.021.02-.051.052-.051.062-.022.031-.031.072.01.114v.072c-.01.02-.021.01-.021 0-.03-.083-.062-.196-.134-.207h-.052v-.02c0-.083-.093-.145-.196-.042.021 0 .062 0 .082.031-.01.021-.02.083-.02.083-.011.083.05.114.144.124.021 0 .021 0 .03.01 0 .01.011.031.011.042 0 .01 0 .01-.02.01-.135-.072-.207 0-.207.062v.062c-.052.041-.062.113.03.175 0-.03 0-.082.042-.093 0 0 .01 0 .01-.01.021.02.042.031.042.041.01.01.04 0 .082-.03.021-.01.021-.01.041 0 .011.01.031.02.042.03.01.01.01.01 0 .021-.094.093-.083.196.051.217.01 0 .021.01.021.031-.01.176-.247.145-.247-.041-.124.206.113.371.289.268.01-.01.01-.01.021 0 0 .031.021.062.062.072-.01-.02 0-.04.041-.04 0 0 .01.01.01.02 0 .051.022.103.083.113-.01-.03 0-.072.021-.072.031 0 .166.248.434.393.041-.01.124-.01.145-.073 0 .021.03.042.062.062.01.124.082.269.062.269-.042 0-.455-.02-.537.03-.124.063-.424.166-.507.042-.03-.041-.02-.082-.061-.144-.031-.042-.073-.073-.104-.073 0-.01-.041-.01-.062-.01-.051-.052-.165-.062-.206-.02.03.01.072.02.113.072-.01.03-.03.062-.03.062-.022.04-.011.103.175.175.01 0 .031.02.01.02-.02.021-.061.021-.103-.01-.072-.051-.082-.134-.175-.082 0 0-.031.01-.052.02h-.03c-.083-.01-.207.093-.145.197.01-.031.04-.083.103-.093.01.02.01.041.01.062.022.093.063.165.259.041.021-.01.021 0 .021.01-.051.083-.175.166-.082.228.01 0 .03.02.051.041-.01 0-.01.01-.01.01-.022.114.103.197.165.197a.213.213 0 0 1-.062-.176c.03.01.052.02.052.02.103-.04.061-.154.113-.185.01-.021.031 0 .031.01 0 .041.021.155.135.145.103-.021.154-.104.144-.166 0-.01 0-.01.01-.01.042.031.073.072.063.124a.295.295 0 0 0 .082-.083c.021.052.021.124-.051.197a.253.253 0 0 0 .185-.197c.022.02.031.052.042.073 0-.01 0-.01.01-.01.042.01.114.02.227-.011.011 0 .011 0 .011.01-.01.052-.01.093.01.114 0-.01.032-.052.052-.052.021 0 0 .114.062.176.021-.29.362-.145.537-.258.031-.01.031-.01.021.01a.21.21 0 0 1-.072.093.503.503 0 0 0 .227-.093c0 .01-.01.02-.02.02l.299-.123c0-.031.01-.062.01-.093.031-.01.072-.01.104-.021-.011 0-.011.01-.011.01.186.01.165-.144.237-.134 1.054.145.455-.454 1.694-.33.062 0 .094-.021.145-.073-.072.114-.072.32.052.341.062.01.175.052.216.093.011.01 0 .02 0 .02-.072.011-.154.032-.185.042-.186.124-.197-.29-.403-.207-.01.01-.041.031-.052.042-.082 0-.196.093-.175.186a.25.25 0 0 1 .134-.083v.041c-.01.042 0 .073.072.073.041 0 .052-.021.083-.021.01 0 .02.01.02.02 0 .073-.258-.04-.206.176 0 0 .031.042.042.062-.011.062.04.124.155.093-.022-.01-.062-.041-.052-.072h.052s.02-.01.02-.031c.011-.01.011-.01.022-.01.01 0 .01.01.01.02s-.01.02-.01.042c0 .01.01.061.021.072-.01.072.103.155.217.072-.031 0-.104-.01-.104-.052.011-.01.042-.02.042-.02.02-.01.03-.042.03-.083 0-.01.011-.02.022-.02h.051c.022-.01.031.01.042.01.02.062.082.093.155.072.134-.051.02-.165.134-.196.021 0 .052-.01.082 0 .104.03.269.02.3-.031.03-.052.01-.238-.103-.31-.073-.03 0-.114-.062-.217a.925.925 0 0 0 .403.103c.299 0 .371-.051.506-.123.144-.093.31-.042.361-.042.031.01.062.02.052.072-.031.155.02.176-.01.238-.032.062-.166.02-.249.01-.051-.01-.093.031-.093.042-.082.01-.165.082-.155.165a.272.272 0 0 1 .135-.072v.03c.01.114.134.145.196.073.01-.01.03 0 .021.01-.062.052-.176.155-.072.196l.041.021c0 .062.052.134.103.145-.02-.042-.02-.062 0-.124h.062c.062 0 .031-.134.104-.176.01-.01.02 0 .01 0-.02.083-.03.176.031.196.01 0 .031.01.052.01.021.052.093.104.186.052-.021-.01-.073-.03-.083-.062.021-.02.041-.062.041-.062.052-.165-.082-.165-.082-.227 0-.082.155-.03.155-.196a.1.1 0 0 0-.072-.093v-.01c.051 0 .093.01.113-.052-.113 0-.072-.083-.093-.155 0-.01-.01-.02 0-.02.041-.032.072-.083.062-.176-.041.052-.175.114-.186.01 0-.01-.01-.093-.124-.062-.196.02-.33-.03-.712-.062.382-.02 1.053-.103 1.053-.35m-4.74-.528c.03.02.185.083.257.104-.113.02-.093.062-.165.062-.082 0-.103-.093-.093-.166m-.155-.082c-.03.062-.103.103-.155.051-.062-.051 0-.062-.062-.175a.694.694 0 0 0 .217.124m-.237.526c.02-.04.04-.082.062-.082.04 0 .072-.01.082-.052.021-.041-.03-.072-.072-.103.052-.01.072-.031.052-.052-.031-.03-.083.01-.094 0-.01-.03.031-.041.042-.062.02-.02.04-.01.072 0l.206.104c.022.01.031.02.031.051 0 .02.01.062-.01.062-.022.01-.022-.062-.062-.062-.021-.01-.021.02-.01.072-.042-.02-.094-.04-.115 0-.02.042-.02.073.011.104.021.02.01.062-.01.103-.022.052-.083.114-.145.083-.083-.052-.062-.124-.042-.166m5.434-2.891c0-.217-.227-.352-.91-.352-.681 0-2.21.259-2.21-.124 0-.196.3-.175.651-.154.031.03.072.062.155.082.878.248 1.91-.206 2.438-.062-.62-.475-1.147.02-1.818-.124.392 0 .527-.113.547-.217-.3.197-.878-.103-1.24.114-.02.02-.04.031-.05.052-.486-.01-.879-.01-.879.31 0 .67 1.828.278 2.396.278.579 0 .693.052.693.166 0 .165-.569.206-.889.206-.496 0-1.983-.258-2.892-.082.072-.145.238-.341.145-.445a.225.225 0 0 0 .144-.175.387.387 0 0 0-.165-.072c.021-.042-.01-.083-.041-.124-.01-.01-.03-.104-.052-.114a.566.566 0 0 0-.196-.134c-.103-.052-.165-.052-.206-.062-.022 0-.114.02-.124.02-.042-.01-.104-.01-.114.052a.228.228 0 0 0-.155-.062.307.307 0 0 0-.021.238c-.083 0-.165.216-.248.185.031.062.052.083.083.093-.073.114-.104.259-.176.269.041.062.083.093.114.093-.01.093-.01.186-.021.269l-.145-.052c-.01 0-.021 0-.041-.01-.022 0-.042-.01-.062-.021a.11.11 0 0 1 .062.02l-.083-.03c-.072-.062-.165-.186-.289-.259-.134-.072-.134-.144-.124-.279 0-.123.062-.227.062-.34 0-.01-.021-.073-.031-.104-.01-.072-.114-.134-.176-.124.031.031.073.052.073.124-.031.021-.052.052-.062.062-.022.031-.042.073 0 .124.01.01.01.01.01.02 0 .011-.01.032-.02.053 0 .03-.012.01-.012 0-.02-.083-.061-.207-.134-.207 0 0-.041-.01-.051-.01v-.01c.01-.094-.094-.156-.197-.052.022 0 .062.01.083.041a.406.406 0 0 0-.031.083c-.01.093.052.124.155.124.01 0 .021.01.03.02v.042c.011.01 0 .01-.01 0-.155-.062-.227.01-.227.072 0 .01-.01.051 0 .062-.062.041-.072.124.021.196 0-.041 0-.093.041-.103 0 0 .011-.01.022-.01.01.01.03.04.03.04.022 0 .042 0 .094-.03.02-.01.03-.02.041 0 .01 0 .03.02.041.03.01 0 .01.021 0 .021-.103.104-.093.207.041.228.022 0 .022.01.022.03-.022.197-.28.156-.248-.04-.155.227.082.392.279.278.01-.01.01 0 .02.01.011.031.022.062.063.073 0-.01.01-.042.04-.042.011 0 .011 0 .011.021 0 .052.022.103.083.114-.01-.031.01-.073.03-.073.032 0 .125.145.27.238.134.052.216.196.299.114-.01.124.114.278.082.278-.04 0-.392-.03-.475.021-.134.062-.444.176-.537.052-.03-.052-.02-.093-.062-.155-.03-.052-.072-.083-.103-.083h-.072c-.052-.062-.165-.062-.217-.03.041.01.082.02.124.082l-.03.062c-.032.041-.022.113.185.175.01 0 .021.031.01.031-.03.021-.072.021-.113-.01-.072-.062-.083-.145-.176-.093-.01 0-.04.02-.072.031 0-.01-.01-.01-.01-.01-.094-.01-.228.103-.166.206.01-.03.041-.082.104-.093a.21.21 0 0 1 .02.062c.022.104.063.176.27.042.02-.01.02.01.02.01-.051.093-.185.176-.082.248.01 0 .03.02.052.03-.011.011-.011.022-.011.022-.021.113.103.206.165.206-.02-.041-.072-.093-.051-.176.02 0 .051.01.051.01.104-.04.052-.164.114-.195.021-.021.03 0 .03.01 0 .051.022.165.146.144.113-.01.165-.093.154-.165 0-.01 0-.01.011-.01.041.02.072.072.062.124.021 0 .062-.041.082-.083.022.062.031.134-.04.207.04-.01.165-.073.185-.196.021.02.031.04.041.062.011 0 .011-.01.011-.01.041.02.124.02.237 0 .022-.011.022 0 .022.01-.011.04-.011.092.01.113 0-.01.031-.052.041-.052.042 0 0 .114.073.186.03-.3.196-.186.382-.31.021-.01.021 0 .021.021-.01.031-.041.062-.083.093.207.041.538-.268.59-.403.082-.01.154-.02.195-.02.6.051.186-.537 1.137-.362a.461.461 0 0 0 .237-.113c-.072.123-.072.392.062.413.062.01.175.051.217.093.02.01.01.02 0 .02a.51.51 0 0 0-.186.052c-.196.134-.207-.31-.424-.227-.01.01-.051.03-.062.041-.082 0-.206.103-.185.196a.244.244 0 0 1 .144-.082v.051c-.01.031.01.062.072.062.042 0 .062-.02.083-.02.021 0 .03.01.03.03 0 .083-.268-.051-.216.176 0 .01.021.052.041.073-.01.062.041.134.165.093-.02-.01-.061-.042-.061-.083a.14.14 0 0 0 .051.01c.021 0 .031-.01.031-.041 0 0 .01-.01.021-.01.01.01.021.01.021.02s-.02.031-.02.052c0 .01.01.062.02.072-.01.083.114.165.227.083-.03 0-.103-.02-.113-.052.02-.01.051-.03.051-.03.022-.011.031-.053.031-.084 0-.02.01-.02.022-.02h.051c.031-.01.041 0 .041.01.031.052.093.103.166.072.144-.04.03-.175.144-.206.021 0 .062-.01.083 0 .113.041.289.03.32-.02.03-.063.01-.259-.114-.331-.072-.042.01-.124-.062-.228.124.052.259.104.424.104.32 0 .392-.052.537-.135.155-.092.33-.04.372-.04.04.01.072.03.062.082-.031.165.02.175-.022.248-.02.062-.165.01-.247.01-.062-.01-.104.031-.104.041-.072.01-.165.083-.165.176.03-.02.082-.072.145-.083 0 .02.01.031.01.042 0 .113.124.144.196.072.011-.01.042 0 .022.02-.062.042-.176.145-.083.186.01 0 .031.021.062.031a.128.128 0 0 0 .103.145c-.03-.031-.03-.052 0-.134a.14.14 0 0 0 .052.01c.072 0 .041-.145.114-.186.01-.01.02 0 .02.01-.03.073-.04.176.032.197 0 0 .03.01.051.01.022.062.104.114.197.062-.022-.01-.073-.031-.083-.072.01-.02.041-.062.041-.073.052-.165-.093-.165-.093-.237 0-.083.165-.031.165-.196 0-.031-.01-.083-.072-.104-.01 0-.01-.01-.01-.01h.01c.052 0 .093.01.114-.052-.124.01-.083-.103-.104-.165 0-.01 0-.02.011-.02.041-.031.072-.083.062-.186-.041.062-.186.124-.196.01-.01-.01-.01-.093-.135-.062-.206.02-.35-.031-.743-.062.444 0 1.105-.114 1.105-.362m-5.32.383v-.01.01m1.085-.971c.021.03.186.093.258.103-.124.031-.082.083-.165.072-.072 0-.103-.103-.093-.175m-.165-.083c-.031.062-.114.114-.176.052-.051-.052.01-.073-.062-.186.073.051.197.124.238.134m-.258.547c.03-.04.04-.082.072-.082.04 0 .072-.01.082-.052.021-.051-.021-.072-.072-.113.052-.01.072-.031.052-.062-.031-.021-.083.03-.093 0-.011-.021.03-.042.04-.052.022-.02.042-.02.073 0l.207.103c.03.01.051.02.051.052 0 .02.01.062-.021.072-.021.01-.021-.062-.052-.072-.041 0-.041.03-.01.083-.062-.021-.104-.052-.135 0-.02.04-.01.072.022.103.02.03 0 .062-.011.113-.021.052-.083.124-.155.083-.082-.041-.072-.134-.052-.176m.558 1.188s.01 0 .01-.01c0 .01 0 .01-.01.01m3.14-3.666c.703.01 1.044-.227 1.044-.444 0-.765-1.911-.29-1.911-.754 0-.083.051-.145.144-.217h.022c.96-.083.98-.754 1.663-.878-.827-.124-.94.527-1.292.558a.45.45 0 0 0 .238-.393c-.165.227-.537.238-.744.506-.03.041-.051.093-.041.135-.124.072-.196.165-.196.278 0 .734 1.931.227 1.931.754 0 .186-.33.31-.857.31-.403 0-.692-.279-1.436-.093.01-.124.248-.351.155-.465.072-.03.124-.093.124-.155-.041-.04-.093-.051-.144-.061.03-.042-.011-.073-.042-.104 0-.01-.01-.082-.03-.103-.032-.021-.094-.072-.176-.114-.083-.041-.135-.041-.176-.051-.02 0-.093.01-.103.01-.041 0-.093 0-.093.052-.042-.042-.093-.052-.135-.062a.281.281 0 0 0-.02.206c-.073.01-.145.186-.218.166.031.051.052.072.073.072-.062.103-.083.227-.145.237.01.021.03.041.052.062-.062.145-.094.34-.104.434a.772.772 0 0 0-.165-.124c-.103-.062-.103-.114-.083-.227.022-.093.083-.186.083-.269 0-.01-.01-.062-.01-.093-.011-.062-.094-.114-.145-.093.02.021.051.041.04.093-.02.021-.04.052-.05.052-.032.03-.042.062-.011.093v.02c0 .022 0 .022-.01.052-.011.011-.011 0-.011 0-.022-.072-.042-.175-.104-.175-.01 0-.041-.01-.051-.01v-.011c.01-.072-.062-.135-.176-.042.03 0 .062 0 .072.031a.134.134 0 0 0-.03.073c-.011.072.04.093.123.103.021 0 .021 0 .021.01.011.011.011.022.011.032 0 .02-.01.01-.01.01-.135-.062-.207 0-.217.052 0 0-.011.04-.011.051-.052.031-.072.093.01.155 0-.03.011-.072.052-.082 0 0 .01 0 .01-.01.011.02.032.03.032.03.01.01.041.01.093-.021.01 0 .021-.01.03 0l.032.03c.01 0 .01.011 0 .022-.104.072-.104.155.02.186.011 0 .022 0 .011.021-.03.155-.258.124-.216-.03-.155.175.04.309.227.226.01-.01.02-.01.02 0 0 .031.022.062.053.062-.011-.01.01-.03.04-.03.011 0 .011 0 .011.01-.01.04 0 .093.062.103-.01-.03.01-.062.031-.062.031 0 .072.134.176.238a2.205 2.205 0 0 1-.434.134c-.031 0-.258-.02-.33.02-.114.052-.383.156-.465.042-.022-.041-.011-.083-.042-.134-.03-.042-.072-.073-.093-.073h-.062c-.04-.051-.144-.051-.186-.02.031.01.073.01.104.072-.01.01-.031.041-.031.052-.021.03 0 .093.165.144.01.01.021.021.01.031-.03.01-.061.021-.092-.01-.072-.052-.083-.134-.155-.083-.01 0-.031.01-.062.031 0-.01-.01-.01-.01-.01-.083-.01-.197.093-.145.176.01-.021.04-.073.093-.083.01.02.01.052.02.052.012.093.053.165.228.041.021-.01.021.01.021.01-.04.073-.165.155-.072.217l.041.02c0 .011-.01.011-.01.021-.021.104.093.176.155.166a.15.15 0 0 1-.062-.145c.021 0 .051.01.051.01.083-.03.042-.134.094-.165.01-.01.02-.01.02.01.011.031.032.135.135.124a.151.151 0 0 0 .134-.144v-.01c.042.02.073.061.062.113a.232.232 0 0 0 .072-.072c.022.041.022.113-.04.175a.252.252 0 0 0 .165-.175c.02.02.03.041.03.062 0-.01 0-.01.011-.01.041.01.103.02.207-.01.01 0 .01.01.01.01-.01.04-.01.082.01.103 0-.01.032-.052.042-.052.03 0 0 .103.062.165.021-.258.165-.155.32-.258.021-.02.021-.01.021.01-.01.021-.03.062-.072.083.062 0 .196-.062.196-.155 0-.02.052-.051.104-.082.062.01.155-.021.186-.083.01.02.04.093 0 .124.165.01.34-.186.413-.207.361-.072-.227-.33.516-.289a.471.471 0 0 0 .217-.083c-.052.114-.062.341.052.352.051.01.154.051.196.082.01.01 0 .02-.01.02a.778.778 0 0 0-.156.042c-.175.114-.186-.258-.372-.186 0 0-.03.02-.041.031-.072 0-.176.093-.165.166.021-.021.062-.062.124-.062v.03c-.01.032.01.063.072.063.03 0 .041-.01.072-.01.01 0 .01 0 .01.01 0 .072-.226-.042-.185.154 0 .01.021.052.041.062-.01.062.041.114.145.083-.021-.02-.062-.041-.052-.072.021.01.041.01.041.01.011 0 .022-.01.031-.03 0-.011 0-.011.01-.011.012 0 .022.01.022.02s-.021.021-.021.042c0 0 .01.051.021.051-.01.073.093.145.196.073-.03 0-.093-.01-.093-.042.01-.01.042-.02.042-.02a.146.146 0 0 0 .02-.073c0-.02.011-.02.022-.02h.052c.02 0 .02 0 .03.01a.12.12 0 0 0 .145.062c.124-.041.01-.155.114-.176.021 0 .051-.01.072 0 .103.021.248.021.279-.02.021-.052.01-.227-.093-.29-.072-.03 0-.103-.062-.196a.824.824 0 0 0 .372.093c.268 0 .01-.041.124-.113.134-.083.289-.042.33-.031.031 0 .062.02.052.062-.031.144.01.155-.021.217-.022.062-.135.01-.217.01-.042 0-.083.03-.083.03-.072.022-.144.073-.144.156a.28.28 0 0 1 .124-.062v.03c.01.094.113.125.175.052.01-.01.031 0 .021.021-.051.041-.155.134-.072.165.01 0 .031.01.052.021-.01.062.03.124.082.134-.02-.03-.02-.051.01-.124h.042c.062.01.031-.113.104-.144.01-.01.01-.01.01 0-.021.072-.03.155.031.175 0 0 .021 0 .041.01.021.052.083.094.166.042-.022 0-.062-.02-.073-.052.022-.02.042-.051.042-.062.04-.144-.083-.144-.083-.206s.145-.031.145-.165c0-.021-.01-.073-.062-.093v-.01c.041 0 .082.01.093-.042-.093.01-.072-.083-.083-.145 0 0 0-.01.011-.02.03-.021.062-.062.041-.155-.03.051-.155.113-.165.01 0-.01 0-.072-.114-.062-.175.022-.258-.072-.599-.103-.02 0-.03-.01 0-.021m-2.127-.775h-.011.01m.507-.124c.03.021.165.072.227.083-.104.03-.072.072-.145.062-.062 0-.093-.083-.082-.145m-.135-.072c-.03.051-.103.093-.155.041-.04-.052.011-.062-.051-.155.062.031.165.103.206.114m-.216.465c.01-.041.03-.072.051-.072.042.01.062 0 .073-.042.02-.04-.022-.061-.062-.093.051-.01.062-.03.04-.051-.03-.021-.061.02-.082 0 0-.021.031-.041.042-.052.02-.021.04-.01.061 0l.176.093c.03 0 .041.021.041.042 0 .02.01.051-.01.061-.01.011-.01-.051-.052-.061-.03 0-.03.02-.01.072-.042-.021-.083-.042-.104 0-.021.041-.01.062.01.093.022.02 0 .051-.01.093-.01.041-.062.103-.134.062-.072-.031-.062-.104-.031-.145m2.603 10.856-.166-.01v-.156c.022-.568-.32-.991-.93-.991-.547 0-1.61.702-3.087.702-.63 0-1.384-.3-1.85-.578l-.185.444v-.041a.362.362 0 1 0-.723 0 .36.36 0 0 0 .361.361.348.348 0 0 0 .28-.134l-.176.444c.051.02.124.052.186.072-.207 2.252 1.446 5.113 4.379 5.98.434-.113.878-.051.878.424 0 .29-.145.413-.413.413-.176 0-.28-.103-.28-.217 0-.196.342-.072.373-.217.051-.175-.073-.258-.269-.258-.206 0-.516.134-.516.475 0 .403.32.64.671.64.32 0 1.012-.175.92-.98.154.01.33-.021.36-.166l.042-.454-.155-.031.114-5.134.124.01c.186.011.35-.072.361-.278.01-.207-.155-.3-.3-.32m-5.308.402 3.563 5.123c-1.91-.743-3.8-2.447-3.563-5.123m3.666 4.638-3.243-4.669h.3c.165 0 .33 0 .496-.03l2.602 3.738a21.27 21.27 0 0 1-.155.961m.238-1.487-2.283-3.285c.248-.062.496-.134.734-.217l1.714 2.458c-.051.352-.103.703-.165 1.044m.558-3.615-.135-.01c-.155-.011-.34.061-.361.268-.01.206.134.32.32.33l.093.01c0 .042-.01.083-.01.135a46.51 46.51 0 0 0-.207 1.322l-1.456-2.076c.681-.269 1.229-.568 1.518-.568.237 0 .29.113.237.589m8.873-5.31a.531.531 0 0 0 .258-.237c-.145.052-.237-.02-.268-.03.093-.063.206 0 .093-.177-.114-.175-.186-.175-.3-.051-.114.124-.867-.031-.867-.6.051.104.144.166.258.218.03.01.062.02.093.041.03.01.062.01.093.02.072.021.155.042.217.032h.041v-.021c.155-.031.279-.124.3-.29.02-.31-.269-.464-.6-.733-.123-.113-.227-.196-.299-.278-.114-.228-.041-.424-.33-.837a1.166 1.166 0 0 0-.094-.362c-.144.269-.206.775.176 1.199.32.35.992.681.97.98-.01.063-.071.125-.175.145-.03 0-.062 0-.093-.01-.021 0-.041-.01-.062-.02a.551.551 0 0 1-.144-.063 1.075 1.075 0 0 1-.238-.185c-.268-.259-.527-.64-.692-.858-.32-.403-.175-.785-.124-1.115.217-.31-.134-.93-.351-1.085 0 0 .052-.144-.01-.32-.042.031-.135.031-.186.02-.062-.113-.083-.144-.166-.154-.134-.021-.124-.093-.144-.145-.073.072-.104.134-.186.145-.114 0-.155-.01-.207.041-.072.052-.103.083-.227.072-.134 0-.124.073-.114.166.011.062.011.155.094.186.01.01.02.01.03.02l.104.114.072-.124c.052-.052.217-.062.248.052.021.082.041.103-.062.113-.114.02-.176.02-.279.02-.072.011-.072.104-.072.166.01.062.093.103.237.062.155-.031.424-.062.424.072 0 .33-.382.32-.475.723a.804.804 0 0 1-.238-.217 1.797 1.797 0 0 0-.279-.361c-.082-.072-.186-.165-.289-.238-.134-.082-.145-.144-.145-.279 0-.123.062-.227.052-.34 0-.01-.021-.073-.03-.104-.032-.072-.125-.134-.187-.113.031.02.062.051.072.113-.03.031-.051.062-.051.062-.021.042-.041.083.01.124v.083c-.01.02-.02.01-.02-.01-.032-.083-.073-.207-.145-.207-.011 0-.042-.01-.062 0 .01-.01.01-.01.01-.02 0-.083-.103-.156-.206-.052.03.01.072.01.082.03-.01.032-.02.094-.02.094 0 .082.061.124.154.124.021 0 .031.01.031.02s.01.02.01.042c.011.01-.01.01-.01.01-.155-.072-.227 0-.227.072v.062c-.052.031-.062.114.041.176 0-.02-.01-.073.03-.093.012 0 .012 0 .022-.01.01.02.031.04.041.04.011.011.042 0 .083-.03.01-.01.03-.01.041 0 .01.01.031.02.052.03v.021c-.104.104-.083.186.03.217-.061.114-.237.073-.226-.093-.124.217.093.362.268.29.01.072 0 .227.031.227 0-.01.01-.042.041-.042.01 0 .021.01.021.021 0 .052.022.114.083.124-.01-.041.01-.052.03-.072.022.051.063.103.083.155.093.155.269.557.672.733-.207.114-.351.29-.475.444-.114.114-.28.227-.383.176-.04-.042-.051-.073-.113-.124-.052-.031-.104-.042-.135-.031-.01 0-.04.01-.061.02-.073-.02-.176.01-.217.073.04-.01.093-.02.144.02v.073c-.01.04.031.103.238.082.021 0 .041.01.03.031-.03.01-.061.042-.113.031-.093-.03-.134-.103-.207-.02 0 .01-.02.03-.04.051h-.022c-.083.031-.155.196-.062.258 0-.03.01-.093.062-.123a.15.15 0 0 0 .041.04c.062.094.124.145.269-.061.01-.02.01-.01.01 0 0 .103-.093.237.031.258 0 0 .031.01.062.01v.021c.021.114.176.145.238.114-.042-.021-.114-.052-.135-.135.022 0 .052 0 .062-.01.072-.072-.02-.176.021-.227.011-.02.022-.01.031 0 .021.051.093.144.197.082.051-.03.072-.082.082-.134.145-.062.269-.103.372-.072-.021-.072.062-.176.217-.217.144-.041.216.01.258.052.021-.062.082-.166.155-.259-.01.6.785.579.97.94-.247-.103-.505-.165-.66-.134-.186.041-.527.227-.579.444-.03.186.155.506.352.64-.238.042-.32-.03-.527.021h-.021c-.186.01-.207-.3-.424-.217-.021 0-.051.02-.062.042-.082 0-.206.103-.186.185.031-.02.073-.062.145-.072-.01.01-.01.042-.01.042 0 .03.01.072.082.072.051 0 .062-.02.082-.02.022 0 .031.01.031.02 0 .082-.268-.052-.227.186.01 0 .031.041.052.062-.01.062.041.134.165.103-.03-.02-.072-.052-.062-.093a.14.14 0 0 0 .052.01c.02 0 .02-.01.03-.03 0-.011.011-.011.011-.011.021 0 .031.01.031.02s-.021.021-.021.042c0 0 .01.062.021.072-.01.083.114.166.227.083-.03 0-.103-.01-.113-.062.02 0 .051-.01.051-.02.021-.011.031-.042.031-.073 0-.031.01-.031.021-.031h.062c.021 0 .021.01.031.02.031.052.093.094.165.073.052-.02.073-.052.073-.062a.39.39 0 0 1 .103.062c-.031-.093.03-.165.217-.041l.134-.093s.176.072.248-.01c.114-.104.051-.104.051-.197-.082-.186-.124-.165-.165-.33-.051-.3.351-.476.6-.424.04.196.31.682.743.826.279.104.392-.196.485-.155.01.01.031.031.042.083-.011.134.01.248-.031.32-.031.062-.176.01-.28 0-.05 0-.103.042-.103.052-.082.01-.175.083-.175.186.03-.02.082-.072.155-.083v.042c.02.113.144.154.217.072.01-.01.04 0 .03.02-.072.052-.196.166-.082.207 0 0 .03.01.052.02 0 .083.051.145.113.156-.02-.042-.03-.062 0-.135h.062c.072 0 .041-.144.124-.186.01-.01.021-.01.021 0-.03.083-.04.186.031.217.01 0 .031 0 .062.01.021.063.104.114.207.052-.022-.01-.083-.03-.093-.062.02-.03.051-.062.051-.072.052-.186-.103-.186-.103-.258 0-.083.175-.031.175-.207v-.03c.083-.042.166-.094.176-.166a.4.4 0 0 1-.217-.041zm1.663 1.034c.165.103.113.371-.104.34a10.875 10.875 0 0 0-1.828-4.834c.01 0 .021-.01.031-.02a.638.638 0 0 0 .403-.496.622.622 0 0 0-.62.269 2.65 2.65 0 0 0-.206-.269 8.946 8.946 0 0 0-2.066-1.942 7.505 7.505 0 0 0-2.293-1.043c.021-.186.258-.217.351-.051.031-.3-.227-.455-.382-.393-.083.031-.155.093-.165.237a.634.634 0 0 0-.434-.227c-.01.186.041.341.134.455a.249.249 0 0 0-.248.124c-.082.134.022.423.33.444-.154-.114-.092-.351.094-.34v3.728a.641.641 0 0 0-.62.155.625.625 0 0 0 .62.165v4.039c-.196.02-.258-.228-.093-.341-.3 0-.434.268-.362.413.042.093.135.165.31.144a.636.636 0 0 0-.165.434.66.66 0 0 0 .424-.165c-.011.165.061.258.154.31.135.062.414-.062.414-.362-.104.145-.352.104-.352-.082h2.81a.603.603 0 0 0 .165.61.618.618 0 0 0 .155-.61h3.13c.02.196-.227.248-.341.093.01.31.289.423.423.35.093-.04.166-.133.145-.309a.623.623 0 0 0 .423.155.617.617 0 0 0-.175-.424c.175.01.268-.062.31-.154.062-.145-.062-.414-.372-.403m-2.696-4.937c-.082.082-.114.185-.093.268.03.103.114.176.29.186a.672.672 0 0 0-.228.403c.186.02.34-.02.455-.103-.042.165.01.268.093.32.062.051.165.051.258.01a10.334 10.334 0 0 1 1.425 3.863.615.615 0 0 0-.35-.103c.01.206.082.35.185.444h-2.376c.022-.145-.061-.279-.155-.31-.103-.041-.216-.02-.32.103a.677.677 0 0 0-.186-.413.577.577 0 0 0-.185.413c-.114-.124-.228-.144-.331-.103-.093.031-.176.165-.155.31h-2.035a.594.594 0 0 0 .145-.403.59.59 0 0 0-.403.155v-3.295c.155.02.29-.052.33-.155.032-.103.011-.217-.123-.32a.64.64 0 0 0 .423-.196.677.677 0 0 0-.423-.186c.134-.103.155-.227.124-.32-.042-.093-.176-.176-.33-.155v-2.779a.679.679 0 0 0 .35.135.669.669 0 0 0-.093-.393 7.15 7.15 0 0 1 1.828.899 8.702 8.702 0 0 1 1.88 1.725m8.904 6.073c-.33-.248-.889-.764-1.168-1.364-.361-.754-1.88-3.728-2.117-4.131-.196-.33-.29-.62-.29-.888 0-.31.156-.568.321-.796.114-.144.444-.464.568-.66.093-.145.186-.259.269-.352-.548-.95-1.116-1.683-1.839-2.489a15.045 15.045 0 0 0-2.964-2.562c.589-.382 1.167-.93 1.167-1.838 0-.527-.217-.95-.6-1.291.61-1.952 1.705-4.307 2.635-5.34l-1.963-.837c.506.785.548 1.684.434 2.22-.516-.36-.95-.846-1.095-1.486-.103.588-.423 1.56-.723 2.127.568-.258 1.023-.382 1.601-.144-.33.444-1.177 1.125-2.468.826-.703-.176-1.395-.537-1.364-1.074.021-.33.259-.713.692-.672.424.042.455.692.32.982.558-.31 1.147-1.963.269-2.2-.692-.197-1.322.754-1.55 1.477-.134-.878-.495-1.715-1.187-1.663-.91.062-.61 1.725-.3 2.148.062-.589.382-.899.64-.868.238.011.558.176.507.713-.052.527-.806.857-1.684.857-.826 0-2.282-.258-2.417-1.859.537.104 1.384.506 1.746 1.043a10.37 10.37 0 0 1 0-2.654c-.455.63-1.198.96-1.725 1.043.155-.682.744-1.415 1.436-1.838h-3.564c.682.423 1.27 1.146 1.426 1.828-.527-.083-1.26-.413-1.694-1.033a10.37 10.37 0 0 1 0 2.654c.35-.526 1.177-.93 1.714-1.032-.134 1.59-1.59 1.848-2.417 1.848-.867 0-1.621-.33-1.683-.857-.052-.537.268-.702.506-.713.268-.03.589.28.64.868.31-.423.61-2.086-.289-2.148-.702-.052-1.064.785-1.198 1.663-.227-.723-.857-1.674-1.55-1.477-.867.237-.289 1.89.27 2.2-.135-.29-.104-.94.32-.982.433-.04.67.341.691.672.031.537-.66.898-1.363 1.074-1.28.3-2.117-.372-2.458-.816.578-.248 1.043-.134 1.621.134-.3-.568-.63-1.539-.723-2.127-.155.65-.599 1.146-1.115 1.497-.124-.527-.093-1.446.423-2.23l-1.962.836c.94 1.033 2.035 3.398 2.644 5.36-.372.331-.589.754-.589 1.27 0 .91.589 1.457 1.167 1.84a14.702 14.702 0 0 0-2.954 2.561c-1.342 1.498-2.396 3.264-3.13 5.216.27.279 1.436 1.56 1.715 1.91.496.61.785 1.23.796 1.705.03.888.216 1.25.692 1.839.144.185.361.878.382 1.311h9.74v10.608c-.382.02-.795.124-1.126.527 1.126.454 2.2.857 3.274 1.198.104-.703.248-1.126.6-1.55 0 0-1.416-.144-2.18-.185V37.617h9.523a13.524 13.524 0 0 1-.775 4.194 12.145 12.145 0 0 1-2.138 3.718c-.909 1.074-1.972 1.911-3.16 2.49-.186.103-.186.237-.382.31-.166.185-.331.505-.465.867-.124.31-.166.537-.217.96.444.145.682.217 1.115.32 3.337.837 4.173.59 4.36.445v-.01a15.153 15.153 0 0 0 2.106-1.973 16.643 16.643 0 0 0 3.13-5.258 18.187 18.187 0 0 0 1.146-6.424c0-.403.01-.537-.02-.94m-14.792.733h-9.76c.03-1.508.289-2.974.785-4.358a11.854 11.854 0 0 1 2.138-3.719c.909-1.064 1.973-1.91 3.16-2.489a8.503 8.503 0 0 1 3.677-.899zm.166-16.237c-3.244 0-5.485.961-6.786 1.829-.754-.444-1.085-.878-1.085-1.405 0-1.839 5.216-2.004 7.87-2.004 2.655 0 7.871.165 7.871 2.004 0 .527-.33.96-1.084 1.405-1.302-.868-3.543-1.829-6.786-1.829m.402 16.237V25.595a8.497 8.497 0 0 1 3.45.888c1.188.578 2.252 1.425 3.16 2.49a12.268 12.268 0 0 1 2.139 3.718c.496 1.384.754 2.85.775 4.358zm32.567 23.705a.27.27 0 0 0-.34-.166c-3.048.889-6.839-1.642-10.505-4.09-3.078-2.045-5.99-3.987-8.49-3.987-.92 0-1.736.197-2.448.579-.868.475-1.519 1.24-1.942 2.251-.424 1.023-.857 1.715-1.219 2.283-.423.671-.733 1.147-.733 1.756 0 .485.216.94.64 1.363.351.352.857.703 1.601 1.095.155.083.31.155.465.227.61.3.981.496 1.053.837-1.208.537-2.768.971-4.544 1.28-1.994.352-4.194.528-6.518.528-2.313 0-4.513-.176-6.517-.527-1.766-.31-3.336-.744-4.545-1.28.052-.517.424-.714 1.085-1.034.155-.072.31-.144.475-.227.61-.32 1.177-.64 1.57-.981.423-.382.63-.796.63-1.281 0-.6-.31-1.085-.734-1.756-.35-.558-.795-1.26-1.208-2.283-.423-1.012-1.074-1.776-1.952-2.251-.702-.382-1.529-.579-2.438-.579-2.5 0-5.412 1.942-8.49 3.998-3.667 2.437-7.457 4.968-10.515 4.08-.134-.042-.278.03-.34.175a.282.282 0 0 0 .154.34c.93.414 1.746 1.054 2.541 1.674 1.095.857 2.138 1.663 3.285 1.663 1.084 0 2.252-.34 3.667-1.084 1.229-.64 2.51-1.508 3.739-2.355 2.417-1.643 4.906-3.347 7.271-3.533-.248.248-.496.465-.723.672-.692.62-1.301 1.156-1.301 2.262 0 .857.3 1.466.712 2.324.114.247.248.526.393.846.268.579.372 1.054.527 1.694l.247.961c.155.568.434 1.622 2.17 2.5 2.013 1.022 5.474 1.539 10.297 1.539 4.824 0 8.294-.517 10.308-1.54 1.735-.877 2.014-1.931 2.159-2.499.103-.362.176-.682.248-.96.155-.641.268-1.116.526-1.695.197-.433.383-.785.548-1.084.361-.682.65-1.219.65-2.004 0-1.095-.64-1.663-1.373-2.324a14.76 14.76 0 0 1-.733-.702c2.365.196 4.854 1.89 7.271 3.543 1.23.836 2.51 1.704 3.739 2.355 1.415.733 2.582 1.084 3.667 1.084 1.146 0 2.179-.816 3.284-1.673.796-.61 1.612-1.25 2.541-1.663a.279.279 0 0 0 .145-.351m-30.615-3.14c-.155 0-.3.02-.433.062v-2.603a17.903 17.903 0 0 1-3.812-.578v3.191a1.37 1.37 0 0 0-.465-.072c-.909 0-1.477.774-1.477 1.487 0 .672.393 1.291.734 1.673.175-.402.33-.733.557-.733.455 0 .248 2.262 1.57 2.324a1.022 1.022 0 0 0-.061.362 1.03 1.03 0 0 0 1.032 1.032c.579 0 1.044-.454 1.044-1.032a.848.848 0 0 0-.073-.362c1.333-.062 1.106-2.324 1.57-2.324.217 0 .362.31.568.733.341-.382.734-1.001.734-1.673 0-.713-.568-1.487-1.488-1.487m-2.354 5.69a.577.577 0 1 1 0-1.156.577.577 0 1 1 0 1.157m3.108-3.285c-.154-.3-.392-.464-.588-.464-.889 0-.537 2.344-1.601 2.344-.465 0-.703-.289-.703-.62 0-.33.228-.423.228-.692 0-.268-.207-.361-.445-.361-.227 0-.433.093-.433.361 0 .269.227.362.227.693 0 .33-.248.62-.713.62-1.053 0-.702-2.345-1.6-2.345-.197 0-.424.165-.58.464-.175-.33-.278-.671-.278-.919 0-.434.33-1.022 1.022-1.022 1.188 0 .92 1.61 1.488 1.61.247 0 .434-.144.434-.392 0-.464-.827-.898-.827-1.56 0-.66.6-1.218 1.26-1.745.661.527 1.27 1.085 1.27 1.746 0 .66-.826 1.095-.826 1.56 0 .247.176.392.434.392.568 0 .29-1.611 1.477-1.611.692 0 1.033.588 1.033 1.022 0 .248-.103.589-.279.92m.61-8.842c-2.18-.547-4.772-1.477-7.2-2.582v-.02c.073-.497-.113-1.044-.485-1.478-.372-.423-.878-.671-1.374-.671a2.08 2.08 0 0 0-.66.124 9.385 9.385 0 0 1-1.003-1.023 11.74 11.74 0 0 1-2.138-3.718 13.314 13.314 0 0 1-.63-2.469c-.113.713-.909 1.643-2.272 1.663.021-.144.01-.506-.124-.537-.351.393-.888.826-2.128.393.196.96.455 1.91.806 2.83a16.71 16.71 0 0 0 3.13 5.247c.444.506.908.97 1.394 1.394-.01.093-.021.186-.021.29 0 .505.496 1.321 1.208 1.662.579.28 1.198.207 1.766-.206 1.064.568 2.417 1.094 3.863 1.497 1.632.455 3.213.713 4.442.713 1.064 0 2.468-.506 3.852-1.384a9.067 9.067 0 0 0 1.457-1.095c.051-.052.103-.093.155-.145-1.085.155-2.706-.154-4.039-.485m-7.974-3.274-.237-.176c-.413-.31-.775-.31-1.157.02-.176.156-.34.342-.496.528l-.237.268.155.124c.444.362.516.754.392.981a.376.376 0 0 1-.237.176c-.217.062-.527-.02-.858-.207l-.165-.103-.103.165a.914.914 0 0 1-.083.124c-.041.052-.072.114-.113.176-.197.34-.29.589-.29.795 0 .062.011.114.031.165.062.248.259.362.434.455l.104.062c.206.134.485.3.692.413-.393.227-.796.248-1.188.052-.6-.29-.971-.971-.971-1.302 0-.527.227-1.177.65-1.849l.062-.103-.061-.103a4.629 4.629 0 0 1-.3-.6c.227.032.444.073.671.125l.114.03.072-.082c.259-.29 1.178-1.208 2.035-1.208.382 0 .775.196 1.074.537.217.248.351.547.393.826-.114-.083-.259-.186-.382-.29m1.404 4.153a.935.935 0 0 1-.93-.94c0-.516.414-.93.93-.93.517 0 .93.414.93.93s-.413.94-.93.94m4.08 1.26a.853.853 0 0 1 0-1.704.853.853 0 1 1 0 1.704M63.39 3.636c-.485-.393-.867-.95-.94-1.54.568.104 1.198.517 1.57 1.003V.713c-.372.495-1.012.898-1.57 1.002.062-.579.424-1.106.91-1.715h-2.314c.485.61.847 1.136.909 1.715-.558-.104-1.199-.507-1.57-1.002v2.386c.371-.486 1.001-.899 1.57-1.002-.073.588-.445 1.146-.94 1.539zm-3.315 2.881a2.19 2.19 0 0 0 2.127 1.694c1.044 0 1.911-.723 2.128-1.694zm2.582-.847h1.683a2.17 2.17 0 0 0-1.683-1.766Zm-.899 0V3.904a2.194 2.194 0 0 0-1.704 1.766zm1.632 3.264a2.893 2.893 0 0 1-.785.248v2.964h.785zm-2.365 3.213h.775V9.182a2.727 2.727 0 0 1-.775-.248Zm2.52-3.75a.692.692 0 1 0 1.384 0 .692.692 0 0 0-1.384 0m2.314-.062a.692.692 0 1 0 0-1.384.692.692 0 0 0 0 1.384m1.714-.495a.692.692 0 1 0 0-1.385.692.692 0 0 0 0 1.385m4.876 1.549a.692.692 0 1 0 0-1.384.692.692 0 0 0 0 1.384M71.095 8.2a.692.692 0 1 0 0-1.384.692.692 0 0 0 0 1.384m-1.714-.527a.692.692 0 1 0 0-1.384.692.692 0 0 0 0 1.384m3.718 5.268a.692.692 0 1 0 0 1.384.692.692 0 0 0 0-1.384m.341-1.673a.692.692 0 1 0 0 1.384.692.692 0 0 0 0-1.384m-.92-.992a.692.692 0 1 0 1.385 0 .692.692 0 0 0-1.384 0M60.168 9.09a.692.692 0 1 0 0-1.384.692.692 0 0 0 0 1.384m-1.622-.754c.393 0 .692-.31.692-.692 0-.382-.3-.692-.692-.692a.692.692 0 0 0 0 1.384m-1.715-.495a.692.692 0 1 0 0-1.385.692.692 0 0 0 0 1.385m-4.875 1.549a.692.692 0 1 0 0-1.384.692.692 0 0 0 0 1.384M53.31 8.2a.692.692 0 1 0 0-1.384.692.692 0 0 0 0 1.384m1.715-.527a.692.692 0 1 0 0-1.384.692.692 0 0 0 0 1.384m-3.026 5.96a.692.692 0 1 0-1.385 0 .692.692 0 0 0 1.385 0m-.341-1.673a.692.692 0 1 0-1.384 0 .692.692 0 0 0 1.384 0m-.465-.992a.692.692 0 1 0 0-1.384.692.692 0 0 0 0 1.384m16.144.444c.403.765.743 1.209.692 1.798-.052.588-.672 1.012-.971 1.6-.258-.692-.702-1.208-.65-1.755.05-.537.795-1.25.929-1.643m-10.246 0c-.403.765-.744 1.209-.692 1.798.051.588.671 1.012.97 1.6.27-.692.703-1.208.662-1.755-.062-.537-.806-1.25-.94-1.643m139.985 216.44c-1.911 4.947-3.615 6.754-7.334 6.754-.981 0-1.952-.103-2.881-.444v-3.811c.774.248 1.61.589 2.437.589 1.715 0 2.644-.837 3.43-2.304l1.704-4.296-10.02-25.14h4.69l7.385 20.688h.103l7.086-20.689h4.4zm-19.398-28.642h5.03v3.666h-5.03v15.69c0 1.91.537 2.251 3.13 2.251h1.9v3.667h-3.17c-4.308 0-6.022-.878-6.022-5.526v-16.082h-4.297v-3.666h4.297v-7.582h4.162zm-15.183-.01h4.152v25.284h-4.152zm4.152-4.546h-4.152v-5.081h4.152zm-19.862 4.555h3.915v5.33h.093c2.003-4.06 4.792-6.063 9.296-5.918v4.4c-6.704 0-9.152 3.811-9.152 10.215v11.248h-4.152zm-15.948 22.197c4.36 0 7.871-3.43 7.871-9.533 0-6.167-3.512-9.586-7.87-9.586-4.349 0-7.871 3.42-7.871 9.586 0 6.104 3.522 9.533 7.87 9.533m0-22.785c8.016 0 12.271 5.815 12.271 13.252 0 7.374-4.255 13.2-12.27 13.2-8.016 0-12.271-5.826-12.271-13.2 0-7.437 4.255-13.252 12.27-13.252m-36.853-9.048h4.153v13.344h.103c1.363-3.026 4.937-4.296 7.963-4.296 6.652 0 8.708 3.811 8.708 9.234v16.629h-4.153V207.37c0-3.078-1.962-5.082-5.133-5.082-5.04 0-7.488 3.368-7.488 7.912v14.285h-4.152zm-8.128 9.636h5.03v3.667h-5.03v15.69c0 1.91.537 2.251 3.13 2.251h1.9v3.667h-3.171c-4.307 0-6.022-.878-6.022-5.526v-16.082h-4.297v-3.667h4.297v-7.58h4.163zm-10.99 25.275H70.95v-4.008h-.093c-1.766 3.13-4.596 4.597-8.221 4.597-6.642 0-8.697-3.822-8.697-9.245V199.21h4.152v17.105c0 3.078 1.962 5.092 5.133 5.092 5.04 0 7.489-3.377 7.489-7.922v-14.274h4.152zm-44.457-14.43h11.826l-5.815-16.277h-.093zm3.47-20.481h5.134l13.644 34.911h-5.133L43.71 213.97h-14.77l-3.914 10.515h-4.793zm269.818-41.728h3.915v4.007h.093c1.766-3.13 4.607-4.596 8.222-4.596 6.651 0 8.696 3.811 8.696 9.234v16.63h-4.152v-17.115c0-3.078-1.952-5.082-5.133-5.082-5.03 0-7.478 3.367-7.478 7.922v14.274h-4.163zm-16.01 22.196c4.35 0 7.871-3.418 7.871-9.533 0-6.166-3.522-9.585-7.87-9.585-4.349 0-7.87 3.419-7.87 9.585 0 6.115 3.521 9.533 7.87 9.533m0-22.785c8.025 0 12.27 5.815 12.27 13.252 0 7.375-4.245 13.2-12.27 13.2-8.015 0-12.27-5.825-12.27-13.2 0-7.437 4.255-13.252 12.27-13.252m-20.265.589h4.152v25.274h-4.152zm4.152-4.555h-4.152v-5.082h4.152zm-12.488 4.555h5.04v3.667h-5.04v15.689c0 1.91.548 2.252 3.13 2.252h1.91v3.666h-3.18c-4.297 0-6.012-.878-6.012-5.526v-16.081h-4.307v-3.667h4.307v-7.581h4.152zm-15.1 12.219c-1.622 1.167-4.752 1.219-7.53 1.714-2.737.486-5.092 1.467-5.092 4.545 0 2.737 2.355 3.718 4.896 3.718 5.474 0 7.726-3.429 7.726-5.722zm6.744 12.952c-.733.444-1.663.692-2.985.692-2.148 0-3.522-1.177-3.522-3.914-2.293 2.685-5.37 3.914-8.893 3.914-4.596 0-8.366-2.055-8.366-7.096 0-5.712 4.255-6.94 8.562-7.767 4.597-.878 8.501-.589 8.501-3.718 0-3.615-2.975-4.204-5.619-4.204-3.522 0-6.114 1.074-6.31 4.792h-4.153c.248-6.259 5.082-8.459 10.711-8.459 4.545 0 9.482 1.023 9.482 6.941v13.004c0 1.952 0 2.84 1.322 2.84.34 0 .733-.051 1.27-.247zm-43.442-7.87c.155 3.718 3.377 4.895 6.806 4.895 2.583 0 6.105-.588 6.105-3.77 0-3.222-4.1-3.76-8.263-4.689-4.1-.93-8.263-2.303-8.263-7.137 0-5.092 5.04-7.189 9.44-7.189 5.567 0 10.019 1.756 10.36 7.922h-4.152c-.3-3.233-3.13-4.255-5.867-4.255-2.5 0-5.381.682-5.381 3.222 0 2.985 4.4 3.47 8.263 4.4 4.162.93 8.263 2.304 8.263 7.19 0 6.01-5.62 7.973-10.753 7.973-5.67 0-10.463-2.303-10.71-8.562zm-28.621-17.301h3.914v4.007h.093c1.767-3.13 4.597-4.596 8.222-4.596 6.652 0 8.697 3.811 8.697 9.234v16.63h-4.152v-17.115c0-3.078-1.952-5.082-5.134-5.082-5.04 0-7.478 3.367-7.478 7.922v14.274h-4.162zm-7.82 10.215c-.195-3.956-3.17-7.137-7.28-7.137-4.35 0-6.942 3.274-7.241 7.137zm4.008 7.034c-1.115 5.577-5.123 8.614-10.803 8.614-8.067 0-11.879-5.577-12.126-13.303 0-7.582 4.988-13.149 11.888-13.149 8.945 0 11.682 8.356 11.434 14.47h-18.922c-.145 4.4 2.344 8.315 7.87 8.315 3.43 0 5.826-1.663 6.559-4.947zm-37.658-14.171c-5.578 0-7.726 4.792-7.726 9.533 0 4.99 2.252 9.585 7.974 9.585 5.67 0 7.57-4.844 7.57-9.78 0-4.742-2.437-9.338-7.818-9.338m-11.734-3.078h4.152v3.419h.104c1.363-2.789 4.596-4.008 8.067-4.008 7.767 0 11.63 6.156 11.63 13.293 0 7.148-3.812 13.16-11.537 13.16-2.593 0-6.311-.982-8.16-3.967h-.104v13.055h-4.152zm-40.612 0h3.914v3.708h.104c1.859-2.83 4.689-4.297 8.16-4.297 3.077 0 5.918 1.219 6.94 4.297 1.715-2.686 4.7-4.297 7.922-4.297 5.04 0 8.408 2.097 8.408 7.334v18.53h-4.152v-16.578c0-3.13-.826-5.62-4.886-5.62-4.007 0-6.6 2.542-6.6 6.456v15.741H100.5v-16.577c0-3.274-1.023-5.62-4.741-5.62-4.937 0-6.745 4.546-6.745 6.456v15.741h-4.162zm-16.01 22.196c4.359 0 7.87-3.418 7.87-9.533 0-6.166-3.511-9.585-7.87-9.585-4.348 0-7.87 3.419-7.87 9.585 0 6.115 3.522 9.533 7.87 9.533m0-22.785c8.026 0 12.27 5.815 12.27 13.252 0 7.375-4.244 13.2-12.27 13.2-8.015 0-12.27-5.825-12.27-13.2 0-7.437 4.255-13.252 12.27-13.252m-19.903 1.467c-.982-4.937-4.938-7.437-9.782-7.437-8.314 0-11.826 6.848-11.826 14.13 0 7.974 3.512 14.625 11.878 14.625 6.115 0 9.637-4.307 10.07-10.07h4.648c-.878 8.697-6.31 13.985-15.11 13.985-10.856 0-16.134-8.025-16.134-18.189 0-10.122 5.774-18.385 16.526-18.385 7.282 0 13.303 3.904 14.378 11.34zm283.761-34.942c.145 3.718 3.368 4.896 6.797 4.896 2.592 0 6.114-.59 6.114-3.77 0-3.223-4.11-3.76-8.263-4.69-4.11-.93-8.263-2.303-8.263-7.137 0-5.092 5.03-7.189 9.43-7.189 5.578 0 10.02 1.756 10.37 7.922h-4.162c-.29-3.232-3.13-4.255-5.867-4.255-2.489 0-5.381.682-5.381 3.223 0 2.985 4.4 3.47 8.263 4.4 4.162.93 8.263 2.303 8.263 7.188 0 6.012-5.619 7.974-10.752 7.974-5.67 0-10.463-2.303-10.711-8.562zm-10.463-7.086c-.196-3.956-3.18-7.137-7.292-7.137-4.348 0-6.94 3.274-7.23 7.137zm4.008 7.044c-1.126 5.568-5.134 8.604-10.804 8.604-8.067 0-11.888-5.577-12.126-13.303 0-7.581 4.989-13.149 11.878-13.149 8.945 0 11.692 8.356 11.444 14.47h-18.922c-.155 4.4 2.345 8.316 7.87 8.316 3.42 0 5.816-1.663 6.549-4.938zM295.32 96.481h4.152v25.275h-4.152zm4.152-4.545h-4.152v-5.092h4.152zm-19.862 4.545h3.914v5.33h.093c2.004-4.06 4.793-6.063 9.286-5.919v4.4c-6.693 0-9.141 3.812-9.141 10.215v11.248h-4.152zm-4.979 25.275h-3.914v-4.008h-.094c-1.766 3.13-4.596 4.596-8.221 4.596-6.642 0-8.697-3.811-8.697-9.244V96.481h4.152v17.104c0 3.089 1.963 5.093 5.133 5.093 5.04 0 7.489-3.378 7.489-7.923V96.481h4.152zm-25.977-29.82h-4.152v-5.092h4.152zm0 33.042c0 4.503-2.396 6.456-6.063 6.456-.681 0-1.415-.042-2.148-.197v-3.563c.589.093 1.126.093 1.715.093 1.807 0 2.344-.878 2.344-3.47V96.48h4.152zm-30.232-28.497h3.904v4.008h.104c1.756-3.13 4.596-4.597 8.211-4.597 6.652 0 8.707 3.812 8.707 9.245v16.618h-4.162v-17.114c0-3.078-1.952-5.082-5.134-5.082-5.03 0-7.478 3.378-7.478 7.922v14.275h-4.152zm-10.39-9.637h4.637v34.912h-4.638zm-24.108 0h4.152v34.912h-4.152zm-9.823 21.856c-1.61 1.177-4.74 1.219-7.53 1.715-2.736.485-5.081 1.466-5.081 4.544 0 2.737 2.345 3.719 4.885 3.719 5.475 0 7.726-3.43 7.726-5.723zm6.745 12.963c-.733.433-1.663.681-2.975.681-2.158 0-3.522-1.177-3.522-3.914-2.303 2.685-5.381 3.914-8.903 3.914-4.596 0-8.356-2.055-8.356-7.096 0-5.711 4.255-6.94 8.552-7.767 4.596-.878 8.511-.589 8.511-3.718 0-3.615-2.985-4.204-5.63-4.204-3.51 0-6.114 1.074-6.3 4.793h-4.162c.248-6.26 5.092-8.46 10.71-8.46 4.545 0 9.483 1.023 9.483 6.941v13.004c0 1.952 0 2.84 1.322 2.84.34 0 .733-.051 1.27-.247zM132.497 96.48h3.915v4.008h.093c1.766-3.13 4.606-4.597 8.222-4.597 6.651 0 8.696 3.812 8.696 9.245v16.619h-4.152V104.64c0-3.078-1.952-5.082-5.133-5.082-5.03 0-7.478 3.378-7.478 7.922v14.275h-4.163zm-9.234 0h4.152v25.275h-4.152zm4.152-4.545h-4.152v-5.092h4.152zM82.62 96.481h3.914v3.708h.104c1.859-2.83 4.689-4.297 8.16-4.297 3.077 0 5.918 1.22 6.94 4.297 1.715-2.685 4.7-4.297 7.922-4.297 5.04 0 8.408 2.097 8.408 7.334v18.53h-4.152v-16.578c0-3.13-.826-5.619-4.886-5.619-4.007 0-6.6 2.54-6.6 6.455v15.742h-4.162v-16.578c0-3.274-1.023-5.619-4.741-5.619-4.937 0-6.745 4.545-6.745 6.455v15.742H82.62zm-9.234 0h4.152v25.275h-4.152zm4.152-4.545h-4.152v-5.092h4.152zm-19.862 4.545h3.914v5.33h.093c2.004-4.06 4.793-6.063 9.296-5.919v4.4c-6.703 0-9.151 3.812-9.151 10.215v11.249h-4.152zm-8.738.878c-.982-4.937-4.938-7.437-9.782-7.437-8.314 0-11.826 6.848-11.826 14.13 0 7.974 3.512 14.626 11.878 14.626 6.115 0 9.637-4.308 10.07-10.071h4.648c-.878 8.697-6.31 13.985-15.11 13.985-10.856 0-16.134-8.025-16.134-18.189 0-10.122 5.774-18.385 16.526-18.385 7.282 0 13.303 3.904 14.378 11.341zM0 224.434h3.884V.01H0Z"/>
</svg>
